<?xml version="1.0" encoding="utf-8" standalone="no"?>
<!DOCTYPE svg PUBLIC "-//W3C//DTD SVG 1.1//EN"
  "http://www.w3.org/Graphics/SVG/1.1/DTD/svg11.dtd">
<svg xmlns:xlink="http://www.w3.org/1999/xlink" width="360pt" height="360pt" viewBox="0 0 360 360" xmlns="http://www.w3.org/2000/svg" version="1.1">
 <metadata>
  <rdf:RDF xmlns:dc="http://purl.org/dc/elements/1.1/" xmlns:cc="http://creativecommons.org/ns#" xmlns:rdf="http://www.w3.org/1999/02/22-rdf-syntax-ns#">
   <cc:Work>
    <dc:type rdf:resource="http://purl.org/dc/dcmitype/StillImage"/>
    <dc:date>2024-01-22T16:42:03.599575</dc:date>
    <dc:format>image/svg+xml</dc:format>
    <dc:creator>
     <cc:Agent>
      <dc:title>Matplotlib v3.7.3, https://matplotlib.org/</dc:title>
     </cc:Agent>
    </dc:creator>
   </cc:Work>
  </rdf:RDF>
 </metadata>
 <defs>
  <style type="text/css">*{stroke-linejoin: round; stroke-linecap: butt}</style>
 </defs>
 <g id="figure_1">
  <g id="patch_1">
   <path d="M 0 360 
L 360 360 
L 360 0 
L 0 0 
z
" style="fill: #ffffff"/>
  </g>
  <g id="axes_1">
   <g id="patch_2">
    <path d="M 55.788 306.228 
L 344.448 306.228 
L 344.448 31.92 
L 55.788 31.92 
z
" style="fill: #ffffff"/>
   </g>
   <g id="matplotlib.axis_1">
    <g id="xtick_1">
     <g id="text_1">
      <!-- Start -->
      <g style="fill: #262626" transform="translate(114.015656 323.976313) scale(0.132 -0.132)">
       <defs>
        <path id="ArialMT-53" d="M 288 1472 
L 859 1522 
Q 900 1178 1048 958 
Q 1197 738 1509 602 
Q 1822 466 2213 466 
Q 2559 466 2825 569 
Q 3091 672 3220 851 
Q 3350 1031 3350 1244 
Q 3350 1459 3225 1620 
Q 3100 1781 2813 1891 
Q 2628 1963 1997 2114 
Q 1366 2266 1113 2400 
Q 784 2572 623 2826 
Q 463 3081 463 3397 
Q 463 3744 659 4045 
Q 856 4347 1234 4503 
Q 1613 4659 2075 4659 
Q 2584 4659 2973 4495 
Q 3363 4331 3572 4012 
Q 3781 3694 3797 3291 
L 3216 3247 
Q 3169 3681 2898 3903 
Q 2628 4125 2100 4125 
Q 1550 4125 1298 3923 
Q 1047 3722 1047 3438 
Q 1047 3191 1225 3031 
Q 1400 2872 2139 2705 
Q 2878 2538 3153 2413 
Q 3553 2228 3743 1945 
Q 3934 1663 3934 1294 
Q 3934 928 3725 604 
Q 3516 281 3123 101 
Q 2731 -78 2241 -78 
Q 1619 -78 1198 103 
Q 778 284 539 648 
Q 300 1013 288 1472 
z
" transform="scale(0.015625)"/>
        <path id="ArialMT-74" d="M 1650 503 
L 1731 6 
Q 1494 -44 1306 -44 
Q 1000 -44 831 53 
Q 663 150 594 308 
Q 525 466 525 972 
L 525 2881 
L 113 2881 
L 113 3319 
L 525 3319 
L 525 4141 
L 1084 4478 
L 1084 3319 
L 1650 3319 
L 1650 2881 
L 1084 2881 
L 1084 941 
Q 1084 700 1114 631 
Q 1144 563 1211 522 
Q 1278 481 1403 481 
Q 1497 481 1650 503 
z
" transform="scale(0.015625)"/>
        <path id="ArialMT-61" d="M 2588 409 
Q 2275 144 1986 34 
Q 1697 -75 1366 -75 
Q 819 -75 525 192 
Q 231 459 231 875 
Q 231 1119 342 1320 
Q 453 1522 633 1644 
Q 813 1766 1038 1828 
Q 1203 1872 1538 1913 
Q 2219 1994 2541 2106 
Q 2544 2222 2544 2253 
Q 2544 2597 2384 2738 
Q 2169 2928 1744 2928 
Q 1347 2928 1158 2789 
Q 969 2650 878 2297 
L 328 2372 
Q 403 2725 575 2942 
Q 747 3159 1072 3276 
Q 1397 3394 1825 3394 
Q 2250 3394 2515 3294 
Q 2781 3194 2906 3042 
Q 3031 2891 3081 2659 
Q 3109 2516 3109 2141 
L 3109 1391 
Q 3109 606 3145 398 
Q 3181 191 3288 0 
L 2700 0 
Q 2613 175 2588 409 
z
M 2541 1666 
Q 2234 1541 1622 1453 
Q 1275 1403 1131 1340 
Q 988 1278 909 1158 
Q 831 1038 831 891 
Q 831 666 1001 516 
Q 1172 366 1500 366 
Q 1825 366 2078 508 
Q 2331 650 2450 897 
Q 2541 1088 2541 1459 
L 2541 1666 
z
" transform="scale(0.015625)"/>
        <path id="ArialMT-72" d="M 416 0 
L 416 3319 
L 922 3319 
L 922 2816 
Q 1116 3169 1280 3281 
Q 1444 3394 1641 3394 
Q 1925 3394 2219 3213 
L 2025 2691 
Q 1819 2813 1613 2813 
Q 1428 2813 1281 2702 
Q 1134 2591 1072 2394 
Q 978 2094 978 1738 
L 978 0 
L 416 0 
z
" transform="scale(0.015625)"/>
       </defs>
       <use xlink:href="#ArialMT-53"/>
       <use xlink:href="#ArialMT-74" x="66.699219"/>
       <use xlink:href="#ArialMT-61" x="94.482422"/>
       <use xlink:href="#ArialMT-72" x="150.097656"/>
       <use xlink:href="#ArialMT-74" x="183.398438"/>
      </g>
     </g>
    </g>
    <g id="xtick_2">
     <g id="text_2">
      <!-- End -->
      <g style="fill: #262626" transform="translate(260.540156 323.976313) scale(0.132 -0.132)">
       <defs>
        <path id="ArialMT-45" d="M 506 0 
L 506 4581 
L 3819 4581 
L 3819 4041 
L 1113 4041 
L 1113 2638 
L 3647 2638 
L 3647 2100 
L 1113 2100 
L 1113 541 
L 3925 541 
L 3925 0 
L 506 0 
z
" transform="scale(0.015625)"/>
        <path id="ArialMT-6e" d="M 422 0 
L 422 3319 
L 928 3319 
L 928 2847 
Q 1294 3394 1984 3394 
Q 2284 3394 2536 3286 
Q 2788 3178 2913 3003 
Q 3038 2828 3088 2588 
Q 3119 2431 3119 2041 
L 3119 0 
L 2556 0 
L 2556 2019 
Q 2556 2363 2490 2533 
Q 2425 2703 2258 2804 
Q 2091 2906 1866 2906 
Q 1506 2906 1245 2678 
Q 984 2450 984 1813 
L 984 0 
L 422 0 
z
" transform="scale(0.015625)"/>
        <path id="ArialMT-64" d="M 2575 0 
L 2575 419 
Q 2259 -75 1647 -75 
Q 1250 -75 917 144 
Q 584 363 401 755 
Q 219 1147 219 1656 
Q 219 2153 384 2558 
Q 550 2963 881 3178 
Q 1213 3394 1622 3394 
Q 1922 3394 2156 3267 
Q 2391 3141 2538 2938 
L 2538 4581 
L 3097 4581 
L 3097 0 
L 2575 0 
z
M 797 1656 
Q 797 1019 1065 703 
Q 1334 388 1700 388 
Q 2069 388 2326 689 
Q 2584 991 2584 1609 
Q 2584 2291 2321 2609 
Q 2059 2928 1675 2928 
Q 1300 2928 1048 2622 
Q 797 2316 797 1656 
z
" transform="scale(0.015625)"/>
       </defs>
       <use xlink:href="#ArialMT-45"/>
       <use xlink:href="#ArialMT-6e" x="66.699219"/>
       <use xlink:href="#ArialMT-64" x="122.314453"/>
      </g>
     </g>
    </g>
    <g id="text_3">
     <!-- Category -->
     <g style="fill: #262626" transform="translate(170.905125 341.082562) scale(0.144 -0.144)">
      <defs>
       <path id="ArialMT-43" d="M 3763 1606 
L 4369 1453 
Q 4178 706 3683 314 
Q 3188 -78 2472 -78 
Q 1731 -78 1267 223 
Q 803 525 561 1097 
Q 319 1669 319 2325 
Q 319 3041 592 3573 
Q 866 4106 1370 4382 
Q 1875 4659 2481 4659 
Q 3169 4659 3637 4309 
Q 4106 3959 4291 3325 
L 3694 3184 
Q 3534 3684 3231 3912 
Q 2928 4141 2469 4141 
Q 1941 4141 1586 3887 
Q 1231 3634 1087 3207 
Q 944 2781 944 2328 
Q 944 1744 1114 1308 
Q 1284 872 1643 656 
Q 2003 441 2422 441 
Q 2931 441 3284 734 
Q 3638 1028 3763 1606 
z
" transform="scale(0.015625)"/>
       <path id="ArialMT-65" d="M 2694 1069 
L 3275 997 
Q 3138 488 2766 206 
Q 2394 -75 1816 -75 
Q 1088 -75 661 373 
Q 234 822 234 1631 
Q 234 2469 665 2931 
Q 1097 3394 1784 3394 
Q 2450 3394 2872 2941 
Q 3294 2488 3294 1666 
Q 3294 1616 3291 1516 
L 816 1516 
Q 847 969 1125 678 
Q 1403 388 1819 388 
Q 2128 388 2347 550 
Q 2566 713 2694 1069 
z
M 847 1978 
L 2700 1978 
Q 2663 2397 2488 2606 
Q 2219 2931 1791 2931 
Q 1403 2931 1139 2672 
Q 875 2413 847 1978 
z
" transform="scale(0.015625)"/>
       <path id="ArialMT-67" d="M 319 -275 
L 866 -356 
Q 900 -609 1056 -725 
Q 1266 -881 1628 -881 
Q 2019 -881 2231 -725 
Q 2444 -569 2519 -288 
Q 2563 -116 2559 434 
Q 2191 0 1641 0 
Q 956 0 581 494 
Q 206 988 206 1678 
Q 206 2153 378 2554 
Q 550 2956 876 3175 
Q 1203 3394 1644 3394 
Q 2231 3394 2613 2919 
L 2613 3319 
L 3131 3319 
L 3131 450 
Q 3131 -325 2973 -648 
Q 2816 -972 2473 -1159 
Q 2131 -1347 1631 -1347 
Q 1038 -1347 672 -1080 
Q 306 -813 319 -275 
z
M 784 1719 
Q 784 1066 1043 766 
Q 1303 466 1694 466 
Q 2081 466 2343 764 
Q 2606 1063 2606 1700 
Q 2606 2309 2336 2618 
Q 2066 2928 1684 2928 
Q 1309 2928 1046 2623 
Q 784 2319 784 1719 
z
" transform="scale(0.015625)"/>
       <path id="ArialMT-6f" d="M 213 1659 
Q 213 2581 725 3025 
Q 1153 3394 1769 3394 
Q 2453 3394 2887 2945 
Q 3322 2497 3322 1706 
Q 3322 1066 3130 698 
Q 2938 331 2570 128 
Q 2203 -75 1769 -75 
Q 1072 -75 642 372 
Q 213 819 213 1659 
z
M 791 1659 
Q 791 1022 1069 705 
Q 1347 388 1769 388 
Q 2188 388 2466 706 
Q 2744 1025 2744 1678 
Q 2744 2294 2464 2611 
Q 2184 2928 1769 2928 
Q 1347 2928 1069 2612 
Q 791 2297 791 1659 
z
" transform="scale(0.015625)"/>
       <path id="ArialMT-79" d="M 397 -1278 
L 334 -750 
Q 519 -800 656 -800 
Q 844 -800 956 -737 
Q 1069 -675 1141 -563 
Q 1194 -478 1313 -144 
Q 1328 -97 1363 -6 
L 103 3319 
L 709 3319 
L 1400 1397 
Q 1534 1031 1641 628 
Q 1738 1016 1872 1384 
L 2581 3319 
L 3144 3319 
L 1881 -56 
Q 1678 -603 1566 -809 
Q 1416 -1088 1222 -1217 
Q 1028 -1347 759 -1347 
Q 597 -1347 397 -1278 
z
" transform="scale(0.015625)"/>
      </defs>
      <use xlink:href="#ArialMT-43"/>
      <use xlink:href="#ArialMT-61" x="72.216797"/>
      <use xlink:href="#ArialMT-74" x="127.832031"/>
      <use xlink:href="#ArialMT-65" x="155.615234"/>
      <use xlink:href="#ArialMT-67" x="211.230469"/>
      <use xlink:href="#ArialMT-6f" x="266.845703"/>
      <use xlink:href="#ArialMT-72" x="322.460938"/>
      <use xlink:href="#ArialMT-79" x="355.761719"/>
     </g>
    </g>
   </g>
   <g id="matplotlib.axis_2">
    <g id="ytick_1">
     <g id="text_4">
      <!-- 20 -->
      <g style="fill: #262626" transform="translate(32.807125 261.824664) scale(0.132 -0.132)">
       <defs>
        <path id="ArialMT-32" d="M 3222 541 
L 3222 0 
L 194 0 
Q 188 203 259 391 
Q 375 700 629 1000 
Q 884 1300 1366 1694 
Q 2113 2306 2375 2664 
Q 2638 3022 2638 3341 
Q 2638 3675 2398 3904 
Q 2159 4134 1775 4134 
Q 1369 4134 1125 3890 
Q 881 3647 878 3216 
L 300 3275 
Q 359 3922 746 4261 
Q 1134 4600 1788 4600 
Q 2447 4600 2831 4234 
Q 3216 3869 3216 3328 
Q 3216 3053 3103 2787 
Q 2991 2522 2730 2228 
Q 2469 1934 1863 1422 
Q 1356 997 1212 845 
Q 1069 694 975 541 
L 3222 541 
z
" transform="scale(0.015625)"/>
        <path id="ArialMT-30" d="M 266 2259 
Q 266 3072 433 3567 
Q 600 4063 929 4331 
Q 1259 4600 1759 4600 
Q 2128 4600 2406 4451 
Q 2684 4303 2865 4023 
Q 3047 3744 3150 3342 
Q 3253 2941 3253 2259 
Q 3253 1453 3087 958 
Q 2922 463 2592 192 
Q 2263 -78 1759 -78 
Q 1097 -78 719 397 
Q 266 969 266 2259 
z
M 844 2259 
Q 844 1131 1108 757 
Q 1372 384 1759 384 
Q 2147 384 2411 759 
Q 2675 1134 2675 2259 
Q 2675 3391 2411 3762 
Q 2147 4134 1753 4134 
Q 1366 4134 1134 3806 
Q 844 3388 844 2259 
z
" transform="scale(0.015625)"/>
       </defs>
       <use xlink:href="#ArialMT-32"/>
       <use xlink:href="#ArialMT-30" x="55.615234"/>
      </g>
     </g>
    </g>
    <g id="ytick_2">
     <g id="text_5">
      <!-- 30 -->
      <g style="fill: #262626" transform="translate(32.807125 204.934026) scale(0.132 -0.132)">
       <defs>
        <path id="ArialMT-33" d="M 269 1209 
L 831 1284 
Q 928 806 1161 595 
Q 1394 384 1728 384 
Q 2125 384 2398 659 
Q 2672 934 2672 1341 
Q 2672 1728 2419 1979 
Q 2166 2231 1775 2231 
Q 1616 2231 1378 2169 
L 1441 2663 
Q 1497 2656 1531 2656 
Q 1891 2656 2178 2843 
Q 2466 3031 2466 3422 
Q 2466 3731 2256 3934 
Q 2047 4138 1716 4138 
Q 1388 4138 1169 3931 
Q 950 3725 888 3313 
L 325 3413 
Q 428 3978 793 4289 
Q 1159 4600 1703 4600 
Q 2078 4600 2393 4439 
Q 2709 4278 2876 4000 
Q 3044 3722 3044 3409 
Q 3044 3113 2884 2869 
Q 2725 2625 2413 2481 
Q 2819 2388 3044 2092 
Q 3269 1797 3269 1353 
Q 3269 753 2831 336 
Q 2394 -81 1725 -81 
Q 1122 -81 723 278 
Q 325 638 269 1209 
z
" transform="scale(0.015625)"/>
       </defs>
       <use xlink:href="#ArialMT-33"/>
       <use xlink:href="#ArialMT-30" x="55.615234"/>
      </g>
     </g>
    </g>
    <g id="ytick_3">
     <g id="text_6">
      <!-- 40 -->
      <g style="fill: #262626" transform="translate(32.807125 148.043388) scale(0.132 -0.132)">
       <defs>
        <path id="ArialMT-34" d="M 2069 0 
L 2069 1097 
L 81 1097 
L 81 1613 
L 2172 4581 
L 2631 4581 
L 2631 1613 
L 3250 1613 
L 3250 1097 
L 2631 1097 
L 2631 0 
L 2069 0 
z
M 2069 1613 
L 2069 3678 
L 634 1613 
L 2069 1613 
z
" transform="scale(0.015625)"/>
       </defs>
       <use xlink:href="#ArialMT-34"/>
       <use xlink:href="#ArialMT-30" x="55.615234"/>
      </g>
     </g>
    </g>
    <g id="ytick_4">
     <g id="text_7">
      <!-- 50 -->
      <g style="fill: #262626" transform="translate(32.807125 91.152749) scale(0.132 -0.132)">
       <defs>
        <path id="ArialMT-35" d="M 266 1200 
L 856 1250 
Q 922 819 1161 601 
Q 1400 384 1738 384 
Q 2144 384 2425 690 
Q 2706 997 2706 1503 
Q 2706 1984 2436 2262 
Q 2166 2541 1728 2541 
Q 1456 2541 1237 2417 
Q 1019 2294 894 2097 
L 366 2166 
L 809 4519 
L 3088 4519 
L 3088 3981 
L 1259 3981 
L 1013 2750 
Q 1425 3038 1878 3038 
Q 2478 3038 2890 2622 
Q 3303 2206 3303 1553 
Q 3303 931 2941 478 
Q 2500 -78 1738 -78 
Q 1113 -78 717 272 
Q 322 622 266 1200 
z
" transform="scale(0.015625)"/>
       </defs>
       <use xlink:href="#ArialMT-35"/>
       <use xlink:href="#ArialMT-30" x="55.615234"/>
      </g>
     </g>
    </g>
    <g id="text_8">
     <!-- S/N Ratio -->
     <g style="fill: #262626" transform="translate(25.945125 199.884375) rotate(-90) scale(0.144 -0.144)">
      <defs>
       <path id="ArialMT-2f" d="M 0 -78 
L 1328 4659 
L 1778 4659 
L 453 -78 
L 0 -78 
z
" transform="scale(0.015625)"/>
       <path id="ArialMT-4e" d="M 488 0 
L 488 4581 
L 1109 4581 
L 3516 984 
L 3516 4581 
L 4097 4581 
L 4097 0 
L 3475 0 
L 1069 3600 
L 1069 0 
L 488 0 
z
" transform="scale(0.015625)"/>
       <path id="ArialMT-20" transform="scale(0.015625)"/>
       <path id="ArialMT-52" d="M 503 0 
L 503 4581 
L 2534 4581 
Q 3147 4581 3465 4457 
Q 3784 4334 3975 4021 
Q 4166 3709 4166 3331 
Q 4166 2844 3850 2509 
Q 3534 2175 2875 2084 
Q 3116 1969 3241 1856 
Q 3506 1613 3744 1247 
L 4541 0 
L 3778 0 
L 3172 953 
Q 2906 1366 2734 1584 
Q 2563 1803 2427 1890 
Q 2291 1978 2150 2013 
Q 2047 2034 1813 2034 
L 1109 2034 
L 1109 0 
L 503 0 
z
M 1109 2559 
L 2413 2559 
Q 2828 2559 3062 2645 
Q 3297 2731 3419 2920 
Q 3541 3109 3541 3331 
Q 3541 3656 3305 3865 
Q 3069 4075 2559 4075 
L 1109 4075 
L 1109 2559 
z
" transform="scale(0.015625)"/>
       <path id="ArialMT-69" d="M 425 3934 
L 425 4581 
L 988 4581 
L 988 3934 
L 425 3934 
z
M 425 0 
L 425 3319 
L 988 3319 
L 988 0 
L 425 0 
z
" transform="scale(0.015625)"/>
      </defs>
      <use xlink:href="#ArialMT-53"/>
      <use xlink:href="#ArialMT-2f" x="66.699219"/>
      <use xlink:href="#ArialMT-4e" x="94.482422"/>
      <use xlink:href="#ArialMT-20" x="166.699219"/>
      <use xlink:href="#ArialMT-52" x="194.482422"/>
      <use xlink:href="#ArialMT-61" x="266.699219"/>
      <use xlink:href="#ArialMT-74" x="322.314453"/>
      <use xlink:href="#ArialMT-69" x="350.097656"/>
      <use xlink:href="#ArialMT-6f" x="372.314453"/>
     </g>
    </g>
   </g>
   <g id="patch_3">
    <path d="M 106.3035 134.886335 
L 149.6025 134.886335 
L 149.6025 91.891021 
L 106.3035 91.891021 
L 106.3035 134.886335 
z
" clip-path="url(#p2f64b322a3)" style="fill: #b4d4df; stroke: #797979; stroke-width: 1.2; stroke-linejoin: miter"/>
   </g>
   <g id="patch_4">
    <path d="M 250.6335 224.831566 
L 293.9325 224.831566 
L 293.9325 116.83581 
L 250.6335 116.83581 
L 250.6335 224.831566 
z
" clip-path="url(#p2f64b322a3)" style="fill: #b4d4df; stroke: #797979; stroke-width: 1.2; stroke-linejoin: miter"/>
   </g>
   <g id="line2d_1">
    <path d="M 127.953 134.886335 
L 127.953 185.14851 
" clip-path="url(#p2f64b322a3)" style="fill: none; stroke: #797979; stroke-width: 1.2; stroke-linecap: round"/>
   </g>
   <g id="line2d_2">
    <path d="M 127.953 91.891021 
L 127.953 46.044417 
" clip-path="url(#p2f64b322a3)" style="fill: none; stroke: #797979; stroke-width: 1.2; stroke-linecap: round"/>
   </g>
   <g id="line2d_3">
    <path d="M 117.12825 185.14851 
L 138.77775 185.14851 
" clip-path="url(#p2f64b322a3)" style="fill: none; stroke: #797979; stroke-width: 1.2; stroke-linecap: round"/>
   </g>
   <g id="line2d_4">
    <path d="M 117.12825 46.044417 
L 138.77775 46.044417 
" clip-path="url(#p2f64b322a3)" style="fill: none; stroke: #797979; stroke-width: 1.2; stroke-linecap: round"/>
   </g>
   <g id="line2d_5"/>
   <g id="line2d_6">
    <path d="M 272.283 224.831566 
L 272.283 293.759455 
" clip-path="url(#p2f64b322a3)" style="fill: none; stroke: #797979; stroke-width: 1.2; stroke-linecap: round"/>
   </g>
   <g id="line2d_7">
    <path d="M 272.283 116.83581 
L 272.283 44.388545 
" clip-path="url(#p2f64b322a3)" style="fill: none; stroke: #797979; stroke-width: 1.2; stroke-linecap: round"/>
   </g>
   <g id="line2d_8">
    <path d="M 261.45825 293.759455 
L 283.10775 293.759455 
" clip-path="url(#p2f64b322a3)" style="fill: none; stroke: #797979; stroke-width: 1.2; stroke-linecap: round"/>
   </g>
   <g id="line2d_9">
    <path d="M 261.45825 44.388545 
L 283.10775 44.388545 
" clip-path="url(#p2f64b322a3)" style="fill: none; stroke: #797979; stroke-width: 1.2; stroke-linecap: round"/>
   </g>
   <g id="line2d_10"/>
   <g id="line2d_11">
    <path d="M 106.3035 113.611221 
L 149.6025 113.611221 
" clip-path="url(#p2f64b322a3)" style="fill: none; stroke: #797979; stroke-width: 1.2; stroke-linecap: round"/>
   </g>
   <g id="line2d_12">
    <path d="M 250.6335 184.690921 
L 293.9325 184.690921 
" clip-path="url(#p2f64b322a3)" style="fill: none; stroke: #797979; stroke-width: 1.2; stroke-linecap: round"/>
   </g>
   <g id="patch_5">
    <path d="M 55.788 306.228 
L 55.788 31.92 
" style="fill: none; stroke: #262626; stroke-linejoin: miter; stroke-linecap: square"/>
   </g>
   <g id="patch_6">
    <path d="M 344.448 306.228 
L 344.448 31.92 
" style="fill: none; stroke: #262626; stroke-linejoin: miter; stroke-linecap: square"/>
   </g>
   <g id="patch_7">
    <path d="M 55.788 306.228 
L 344.448 306.228 
" style="fill: none; stroke: #262626; stroke-linejoin: miter; stroke-linecap: square"/>
   </g>
   <g id="patch_8">
    <path d="M 55.788 31.92 
L 344.448 31.92 
" style="fill: none; stroke: #262626; stroke-linejoin: miter; stroke-linecap: square"/>
   </g>
   <g id="PathCollection_1">
    <defs>
     <path id="mb99f870127" d="M 0 1.5 
C 0.397805 1.5 0.77937 1.341951 1.06066 1.06066 
C 1.341951 0.77937 1.5 0.397805 1.5 0 
C 1.5 -0.397805 1.341951 -0.77937 1.06066 -1.06066 
C 0.77937 -1.341951 0.397805 -1.5 0 -1.5 
C -0.397805 -1.5 -0.77937 -1.341951 -1.06066 -1.06066 
C -1.341951 -0.77937 -1.5 -0.397805 -1.5 0 
C -1.5 0.397805 -1.341951 0.77937 -1.06066 1.06066 
C -0.77937 1.341951 -0.397805 1.5 0 1.5 
z
"/>
    </defs>
    <g clip-path="url(#p2f64b322a3)">
     <use xlink:href="#mb99f870127" x="134.358685" y="115.267957" style="fill-opacity: 0.6"/>
     <use xlink:href="#mb99f870127" x="117.25529" y="247.586033" style="fill-opacity: 0.6"/>
     <use xlink:href="#mb99f870127" x="129.234307" y="101.997675" style="fill-opacity: 0.6"/>
     <use xlink:href="#mb99f870127" x="122.350223" y="120.204654" style="fill-opacity: 0.6"/>
     <use xlink:href="#mb99f870127" x="138.131995" y="123.338924" style="fill-opacity: 0.6"/>
     <use xlink:href="#mb99f870127" x="132.921626" y="141.05772" style="fill-opacity: 0.6"/>
     <use xlink:href="#mb99f870127" x="137.884229" y="163.040161" style="fill-opacity: 0.6"/>
     <use xlink:href="#mb99f870127" x="138.196426" y="106.486783" style="fill-opacity: 0.6"/>
     <use xlink:href="#mb99f870127" x="129.499304" y="173.938599" style="fill-opacity: 0.6"/>
     <use xlink:href="#mb99f870127" x="132.817611" y="130.77792" style="fill-opacity: 0.6"/>
     <use xlink:href="#mb99f870127" x="130.992297" y="131.639016" style="fill-opacity: 0.6"/>
     <use xlink:href="#mb99f870127" x="117.947753" y="146.851838" style="fill-opacity: 0.6"/>
     <use xlink:href="#mb99f870127" x="126.124994" y="134.223702" style="fill-opacity: 0.6"/>
     <use xlink:href="#mb99f870127" x="116.250146" y="58.578209" style="fill-opacity: 0.6"/>
     <use xlink:href="#mb99f870127" x="119.091744" y="46.044417" style="fill-opacity: 0.6"/>
     <use xlink:href="#mb99f870127" x="114.597026" y="131.877017" style="fill-opacity: 0.6"/>
     <use xlink:href="#mb99f870127" x="128.298136" y="105.230095" style="fill-opacity: 0.6"/>
     <use xlink:href="#mb99f870127" x="123.835816" y="110.937989" style="fill-opacity: 0.6"/>
     <use xlink:href="#mb99f870127" x="136.671665" y="79.341425" style="fill-opacity: 0.6"/>
     <use xlink:href="#mb99f870127" x="131.145528" y="184.618399" style="fill-opacity: 0.6"/>
     <use xlink:href="#mb99f870127" x="127.367729" y="88.499377" style="fill-opacity: 0.6"/>
     <use xlink:href="#mb99f870127" x="129.96395" y="99.44383" style="fill-opacity: 0.6"/>
     <use xlink:href="#mb99f870127" x="138.619903" y="94.024427" style="fill-opacity: 0.6"/>
     <use xlink:href="#mb99f870127" x="123.572108" y="152.833128" style="fill-opacity: 0.6"/>
     <use xlink:href="#mb99f870127" x="116.233122" y="99.636472" style="fill-opacity: 0.6"/>
     <use xlink:href="#mb99f870127" x="118.523354" y="92.028805" style="fill-opacity: 0.6"/>
     <use xlink:href="#mb99f870127" x="137.724769" y="120.562225" style="fill-opacity: 0.6"/>
     <use xlink:href="#mb99f870127" x="139.415221" y="267.345387" style="fill-opacity: 0.6"/>
     <use xlink:href="#mb99f870127" x="134.641659" y="72.161534" style="fill-opacity: 0.6"/>
     <use xlink:href="#mb99f870127" x="117.782641" y="116.488587" style="fill-opacity: 0.6"/>
     <use xlink:href="#mb99f870127" x="139.525223" y="73.295555" style="fill-opacity: 0.6"/>
     <use xlink:href="#mb99f870127" x="114.418131" y="134.565306" style="fill-opacity: 0.6"/>
     <use xlink:href="#mb99f870127" x="122.164133" y="92.889818" style="fill-opacity: 0.6"/>
     <use xlink:href="#mb99f870127" x="130.163622" y="156.845731" style="fill-opacity: 0.6"/>
     <use xlink:href="#mb99f870127" x="116.084549" y="128.969254" style="fill-opacity: 0.6"/>
     <use xlink:href="#mb99f870127" x="138.9528" y="168.374673" style="fill-opacity: 0.6"/>
     <use xlink:href="#mb99f870127" x="117.166981" y="89.976882" style="fill-opacity: 0.6"/>
     <use xlink:href="#mb99f870127" x="140.277059" y="97.573452" style="fill-opacity: 0.6"/>
     <use xlink:href="#mb99f870127" x="138.445746" y="98.663413" style="fill-opacity: 0.6"/>
     <use xlink:href="#mb99f870127" x="128.714907" y="120.104253" style="fill-opacity: 0.6"/>
     <use xlink:href="#mb99f870127" x="132.408484" y="136.325929" style="fill-opacity: 0.6"/>
     <use xlink:href="#mb99f870127" x="121.420659" y="133.295534" style="fill-opacity: 0.6"/>
     <use xlink:href="#mb99f870127" x="127.543488" y="101.790576" style="fill-opacity: 0.6"/>
     <use xlink:href="#mb99f870127" x="130.467007" y="99.113967" style="fill-opacity: 0.6"/>
     <use xlink:href="#mb99f870127" x="125.650746" y="140.993582" style="fill-opacity: 0.6"/>
     <use xlink:href="#mb99f870127" x="142.265539" y="85.67006" style="fill-opacity: 0.6"/>
     <use xlink:href="#mb99f870127" x="133.702933" y="132.9598" style="fill-opacity: 0.6"/>
     <use xlink:href="#mb99f870127" x="129.665398" y="132.78007" style="fill-opacity: 0.6"/>
     <use xlink:href="#mb99f870127" x="116.245235" y="133.763101" style="fill-opacity: 0.6"/>
     <use xlink:href="#mb99f870127" x="119.660482" y="175.16116" style="fill-opacity: 0.6"/>
     <use xlink:href="#mb99f870127" x="120.958625" y="85.620123" style="fill-opacity: 0.6"/>
     <use xlink:href="#mb99f870127" x="133.789187" y="271.622484" style="fill-opacity: 0.6"/>
     <use xlink:href="#mb99f870127" x="118.703838" y="111.958011" style="fill-opacity: 0.6"/>
     <use xlink:href="#mb99f870127" x="138.33088" y="181.454801" style="fill-opacity: 0.6"/>
     <use xlink:href="#mb99f870127" x="131.249862" y="158.139493" style="fill-opacity: 0.6"/>
     <use xlink:href="#mb99f870127" x="141.787258" y="97.523952" style="fill-opacity: 0.6"/>
     <use xlink:href="#mb99f870127" x="129.162212" y="120.322526" style="fill-opacity: 0.6"/>
     <use xlink:href="#mb99f870127" x="126.656723" y="92.670805" style="fill-opacity: 0.6"/>
     <use xlink:href="#mb99f870127" x="127.838164" y="122.152018" style="fill-opacity: 0.6"/>
     <use xlink:href="#mb99f870127" x="125.672849" y="72.221461" style="fill-opacity: 0.6"/>
     <use xlink:href="#mb99f870127" x="140.656211" y="108.444738" style="fill-opacity: 0.6"/>
     <use xlink:href="#mb99f870127" x="120.394807" y="83.046214" style="fill-opacity: 0.6"/>
     <use xlink:href="#mb99f870127" x="134.427122" y="140.861936" style="fill-opacity: 0.6"/>
     <use xlink:href="#mb99f870127" x="137.490034" y="88.940733" style="fill-opacity: 0.6"/>
     <use xlink:href="#mb99f870127" x="113.842712" y="115.264432" style="fill-opacity: 0.6"/>
     <use xlink:href="#mb99f870127" x="124.18258" y="207.964682" style="fill-opacity: 0.6"/>
     <use xlink:href="#mb99f870127" x="129.214993" y="135.849421" style="fill-opacity: 0.6"/>
     <use xlink:href="#mb99f870127" x="124.083551" y="126.439547" style="fill-opacity: 0.6"/>
     <use xlink:href="#mb99f870127" x="125.242965" y="82.73866" style="fill-opacity: 0.6"/>
     <use xlink:href="#mb99f870127" x="129.151065" y="81.103319" style="fill-opacity: 0.6"/>
     <use xlink:href="#mb99f870127" x="137.861201" y="133.877112" style="fill-opacity: 0.6"/>
     <use xlink:href="#mb99f870127" x="127.163426" y="100.376176" style="fill-opacity: 0.6"/>
     <use xlink:href="#mb99f870127" x="139.259631" y="106.562404" style="fill-opacity: 0.6"/>
     <use xlink:href="#mb99f870127" x="119.65012" y="82.080377" style="fill-opacity: 0.6"/>
     <use xlink:href="#mb99f870127" x="129.50984" y="106.021097" style="fill-opacity: 0.6"/>
     <use xlink:href="#mb99f870127" x="115.390252" y="102.261462" style="fill-opacity: 0.6"/>
     <use xlink:href="#mb99f870127" x="136.039845" y="87.703951" style="fill-opacity: 0.6"/>
     <use xlink:href="#mb99f870127" x="118.466853" y="75.010232" style="fill-opacity: 0.6"/>
     <use xlink:href="#mb99f870127" x="136.727744" y="101.895006" style="fill-opacity: 0.6"/>
     <use xlink:href="#mb99f870127" x="116.323395" y="87.99858" style="fill-opacity: 0.6"/>
     <use xlink:href="#mb99f870127" x="135.40479" y="80.491094" style="fill-opacity: 0.6"/>
     <use xlink:href="#mb99f870127" x="124.476125" y="87.132945" style="fill-opacity: 0.6"/>
     <use xlink:href="#mb99f870127" x="127.940047" y="91.477667" style="fill-opacity: 0.6"/>
     <use xlink:href="#mb99f870127" x="115.138981" y="87.264252" style="fill-opacity: 0.6"/>
     <use xlink:href="#mb99f870127" x="137.183862" y="127.235932" style="fill-opacity: 0.6"/>
     <use xlink:href="#mb99f870127" x="120.126296" y="185.14851" style="fill-opacity: 0.6"/>
     <use xlink:href="#mb99f870127" x="127.700498" y="138.288016" style="fill-opacity: 0.6"/>
     <use xlink:href="#mb99f870127" x="115.126129" y="164.422522" style="fill-opacity: 0.6"/>
    </g>
   </g>
   <g id="PathCollection_2">
    <g clip-path="url(#p2f64b322a3)">
     <use xlink:href="#mb99f870127" x="283.817258" y="163.84172" style="fill-opacity: 0.6"/>
     <use xlink:href="#mb99f870127" x="261.215223" y="293.759455" style="fill-opacity: 0.6"/>
     <use xlink:href="#mb99f870127" x="258.141755" y="95.72294" style="fill-opacity: 0.6"/>
     <use xlink:href="#mb99f870127" x="276.28049" y="167.917446" style="fill-opacity: 0.6"/>
     <use xlink:href="#mb99f870127" x="277.81729" y="158.876405" style="fill-opacity: 0.6"/>
     <use xlink:href="#mb99f870127" x="276.045565" y="224.502924" style="fill-opacity: 0.6"/>
     <use xlink:href="#mb99f870127" x="282.645098" y="235.422937" style="fill-opacity: 0.6"/>
     <use xlink:href="#mb99f870127" x="271.837455" y="98.156738" style="fill-opacity: 0.6"/>
     <use xlink:href="#mb99f870127" x="281.764638" y="212.291011" style="fill-opacity: 0.6"/>
     <use xlink:href="#mb99f870127" x="280.483616" y="130.010198" style="fill-opacity: 0.6"/>
     <use xlink:href="#mb99f870127" x="282.777433" y="132.497638" style="fill-opacity: 0.6"/>
     <use xlink:href="#mb99f870127" x="281.316405" y="227.164081" style="fill-opacity: 0.6"/>
     <use xlink:href="#mb99f870127" x="272.659805" y="190.643974" style="fill-opacity: 0.6"/>
     <use xlink:href="#mb99f870127" x="272.255478" y="116.212988" style="fill-opacity: 0.6"/>
     <use xlink:href="#mb99f870127" x="275.202488" y="44.388545" style="fill-opacity: 0.6"/>
     <use xlink:href="#mb99f870127" x="261.434828" y="158.474055" style="fill-opacity: 0.6"/>
     <use xlink:href="#mb99f870127" x="286.225882" y="133.096084" style="fill-opacity: 0.6"/>
     <use xlink:href="#mb99f870127" x="269.376916" y="175.077338" style="fill-opacity: 0.6"/>
     <use xlink:href="#mb99f870127" x="265.493428" y="63.463904" style="fill-opacity: 0.6"/>
     <use xlink:href="#mb99f870127" x="273.756785" y="198.735227" style="fill-opacity: 0.6"/>
     <use xlink:href="#mb99f870127" x="275.916802" y="82.820892" style="fill-opacity: 0.6"/>
     <use xlink:href="#mb99f870127" x="260.310866" y="162.522094" style="fill-opacity: 0.6"/>
     <use xlink:href="#mb99f870127" x="270.732731" y="106.680253" style="fill-opacity: 0.6"/>
     <use xlink:href="#mb99f870127" x="276.267831" y="136.538957" style="fill-opacity: 0.6"/>
     <use xlink:href="#mb99f870127" x="272.427315" y="173.307512" style="fill-opacity: 0.6"/>
     <use xlink:href="#mb99f870127" x="268.943683" y="81.205106" style="fill-opacity: 0.6"/>
     <use xlink:href="#mb99f870127" x="272.849062" y="117.043417" style="fill-opacity: 0.6"/>
     <use xlink:href="#mb99f870127" x="273.836705" y="266.444063" style="fill-opacity: 0.6"/>
     <use xlink:href="#mb99f870127" x="271.318351" y="76.95024" style="fill-opacity: 0.6"/>
     <use xlink:href="#mb99f870127" x="282.194419" y="198.994786" style="fill-opacity: 0.6"/>
     <use xlink:href="#mb99f870127" x="283.790117" y="60.054932" style="fill-opacity: 0.6"/>
     <use xlink:href="#mb99f870127" x="278.397025" y="200.231349" style="fill-opacity: 0.6"/>
     <use xlink:href="#mb99f870127" x="275.366627" y="91.170982" style="fill-opacity: 0.6"/>
     <use xlink:href="#mb99f870127" x="262.932769" y="207.743225" style="fill-opacity: 0.6"/>
     <use xlink:href="#mb99f870127" x="261.138662" y="144.589298" style="fill-opacity: 0.6"/>
     <use xlink:href="#mb99f870127" x="264.780458" y="184.475812" style="fill-opacity: 0.6"/>
     <use xlink:href="#mb99f870127" x="281.282389" y="85.2628" style="fill-opacity: 0.6"/>
     <use xlink:href="#mb99f870127" x="273.761152" y="207.951554" style="fill-opacity: 0.6"/>
     <use xlink:href="#mb99f870127" x="265.229852" y="110.989769" style="fill-opacity: 0.6"/>
     <use xlink:href="#mb99f870127" x="277.394555" y="134.538216" style="fill-opacity: 0.6"/>
     <use xlink:href="#mb99f870127" x="284.454495" y="188.575088" style="fill-opacity: 0.6"/>
     <use xlink:href="#mb99f870127" x="274.617666" y="194.652278" style="fill-opacity: 0.6"/>
     <use xlink:href="#mb99f870127" x="269.693198" y="151.676587" style="fill-opacity: 0.6"/>
     <use xlink:href="#mb99f870127" x="278.70017" y="96.366923" style="fill-opacity: 0.6"/>
     <use xlink:href="#mb99f870127" x="262.06231" y="184.906029" style="fill-opacity: 0.6"/>
     <use xlink:href="#mb99f870127" x="272.63387" y="192.236191" style="fill-opacity: 0.6"/>
     <use xlink:href="#mb99f870127" x="278.336846" y="121.980485" style="fill-opacity: 0.6"/>
     <use xlink:href="#mb99f870127" x="277.647145" y="179.828929" style="fill-opacity: 0.6"/>
     <use xlink:href="#mb99f870127" x="272.634265" y="171.170886" style="fill-opacity: 0.6"/>
     <use xlink:href="#mb99f870127" x="284.867276" y="259.801957" style="fill-opacity: 0.6"/>
     <use xlink:href="#mb99f870127" x="282.419932" y="113.47198" style="fill-opacity: 0.6"/>
     <use xlink:href="#mb99f870127" x="270.218473" y="263.687691" style="fill-opacity: 0.6"/>
     <use xlink:href="#mb99f870127" x="272.151542" y="214.702104" style="fill-opacity: 0.6"/>
     <use xlink:href="#mb99f870127" x="285.255181" y="197.042483" style="fill-opacity: 0.6"/>
     <use xlink:href="#mb99f870127" x="264.740045" y="279.658998" style="fill-opacity: 0.6"/>
     <use xlink:href="#mb99f870127" x="258.341955" y="71.241106" style="fill-opacity: 0.6"/>
     <use xlink:href="#mb99f870127" x="285.057454" y="239.174913" style="fill-opacity: 0.6"/>
     <use xlink:href="#mb99f870127" x="264.912907" y="136.663877" style="fill-opacity: 0.6"/>
     <use xlink:href="#mb99f870127" x="271.848507" y="235.481002" style="fill-opacity: 0.6"/>
     <use xlink:href="#mb99f870127" x="277.732357" y="102.424612" style="fill-opacity: 0.6"/>
     <use xlink:href="#mb99f870127" x="265.747589" y="288.606218" style="fill-opacity: 0.6"/>
     <use xlink:href="#mb99f870127" x="277.625785" y="75.018532" style="fill-opacity: 0.6"/>
     <use xlink:href="#mb99f870127" x="261.686063" y="268.747721" style="fill-opacity: 0.6"/>
     <use xlink:href="#mb99f870127" x="266.222915" y="88.191406" style="fill-opacity: 0.6"/>
     <use xlink:href="#mb99f870127" x="266.184425" y="243.294249" style="fill-opacity: 0.6"/>
     <use xlink:href="#mb99f870127" x="263.367896" y="259.114866" style="fill-opacity: 0.6"/>
     <use xlink:href="#mb99f870127" x="280.378061" y="230.842342" style="fill-opacity: 0.6"/>
     <use xlink:href="#mb99f870127" x="274.487243" y="239.685998" style="fill-opacity: 0.6"/>
     <use xlink:href="#mb99f870127" x="284.173729" y="71.372455" style="fill-opacity: 0.6"/>
     <use xlink:href="#mb99f870127" x="264.379379" y="225.817492" style="fill-opacity: 0.6"/>
     <use xlink:href="#mb99f870127" x="286.064645" y="197.240773" style="fill-opacity: 0.6"/>
     <use xlink:href="#mb99f870127" x="258.612663" y="202.104002" style="fill-opacity: 0.6"/>
     <use xlink:href="#mb99f870127" x="279.103505" y="213.889461" style="fill-opacity: 0.6"/>
     <use xlink:href="#mb99f870127" x="259.906883" y="260.93844" style="fill-opacity: 0.6"/>
     <use xlink:href="#mb99f870127" x="279.583859" y="286.027107" style="fill-opacity: 0.6"/>
     <use xlink:href="#mb99f870127" x="265.846743" y="289.243175" style="fill-opacity: 0.6"/>
     <use xlink:href="#mb99f870127" x="270.351299" y="212.650836" style="fill-opacity: 0.6"/>
     <use xlink:href="#mb99f870127" x="282.013349" y="100.027148" style="fill-opacity: 0.6"/>
     <use xlink:href="#mb99f870127" x="260.357966" y="204.523671" style="fill-opacity: 0.6"/>
     <use xlink:href="#mb99f870127" x="265.567593" y="252.914704" style="fill-opacity: 0.6"/>
     <use xlink:href="#mb99f870127" x="272.47674" y="248.613143" style="fill-opacity: 0.6"/>
     <use xlink:href="#mb99f870127" x="265.203875" y="134.223883" style="fill-opacity: 0.6"/>
     <use xlink:href="#mb99f870127" x="260.984229" y="196.039146" style="fill-opacity: 0.6"/>
     <use xlink:href="#mb99f870127" x="265.722629" y="107.64457" style="fill-opacity: 0.6"/>
     <use xlink:href="#mb99f870127" x="279.15645" y="192.957798" style="fill-opacity: 0.6"/>
     <use xlink:href="#mb99f870127" x="278.374096" y="219.272674" style="fill-opacity: 0.6"/>
     <use xlink:href="#mb99f870127" x="279.007002" y="178.682125" style="fill-opacity: 0.6"/>
     <use xlink:href="#mb99f870127" x="260.446015" y="244.071409" style="fill-opacity: 0.6"/>
    </g>
   </g>
   <g id="text_9">
    <!-- *** -->
    <g style="fill: #ff0000" transform="translate(191.944406 41.606045) scale(0.14 -0.14)">
     <defs>
      <path id="ArialMT-2a" d="M 200 3741 
L 344 4184 
Q 841 4009 1066 3881 
Q 1006 4447 1003 4659 
L 1456 4659 
Q 1447 4350 1384 3884 
Q 1706 4047 2122 4184 
L 2266 3741 
Q 1869 3609 1488 3566 
Q 1678 3400 2025 2975 
L 1650 2709 
Q 1469 2956 1222 3381 
Q 991 2941 816 2709 
L 447 2975 
Q 809 3422 966 3566 
Q 563 3644 200 3741 
z
" transform="scale(0.015625)"/>
     </defs>
     <use xlink:href="#ArialMT-2a"/>
     <use xlink:href="#ArialMT-2a" x="38.916016"/>
     <use xlink:href="#ArialMT-2a" x="77.832031"/>
    </g>
   </g>
   <g id="text_10">
    <!-- Start vs End S/N Values -->
    <g style="fill: #262626" transform="translate(123.416625 25.92) scale(0.144 -0.144)">
     <defs>
      <path id="ArialMT-76" d="M 1344 0 
L 81 3319 
L 675 3319 
L 1388 1331 
Q 1503 1009 1600 663 
Q 1675 925 1809 1294 
L 2547 3319 
L 3125 3319 
L 1869 0 
L 1344 0 
z
" transform="scale(0.015625)"/>
      <path id="ArialMT-73" d="M 197 991 
L 753 1078 
Q 800 744 1014 566 
Q 1228 388 1613 388 
Q 2000 388 2187 545 
Q 2375 703 2375 916 
Q 2375 1106 2209 1216 
Q 2094 1291 1634 1406 
Q 1016 1563 777 1677 
Q 538 1791 414 1992 
Q 291 2194 291 2438 
Q 291 2659 392 2848 
Q 494 3038 669 3163 
Q 800 3259 1026 3326 
Q 1253 3394 1513 3394 
Q 1903 3394 2198 3281 
Q 2494 3169 2634 2976 
Q 2775 2784 2828 2463 
L 2278 2388 
Q 2241 2644 2061 2787 
Q 1881 2931 1553 2931 
Q 1166 2931 1000 2803 
Q 834 2675 834 2503 
Q 834 2394 903 2306 
Q 972 2216 1119 2156 
Q 1203 2125 1616 2013 
Q 2213 1853 2448 1751 
Q 2684 1650 2818 1456 
Q 2953 1263 2953 975 
Q 2953 694 2789 445 
Q 2625 197 2315 61 
Q 2006 -75 1616 -75 
Q 969 -75 630 194 
Q 291 463 197 991 
z
" transform="scale(0.015625)"/>
      <path id="ArialMT-56" d="M 1803 0 
L 28 4581 
L 684 4581 
L 1875 1253 
Q 2019 853 2116 503 
Q 2222 878 2363 1253 
L 3600 4581 
L 4219 4581 
L 2425 0 
L 1803 0 
z
" transform="scale(0.015625)"/>
      <path id="ArialMT-6c" d="M 409 0 
L 409 4581 
L 972 4581 
L 972 0 
L 409 0 
z
" transform="scale(0.015625)"/>
      <path id="ArialMT-75" d="M 2597 0 
L 2597 488 
Q 2209 -75 1544 -75 
Q 1250 -75 995 37 
Q 741 150 617 320 
Q 494 491 444 738 
Q 409 903 409 1263 
L 409 3319 
L 972 3319 
L 972 1478 
Q 972 1038 1006 884 
Q 1059 663 1231 536 
Q 1403 409 1656 409 
Q 1909 409 2131 539 
Q 2353 669 2445 892 
Q 2538 1116 2538 1541 
L 2538 3319 
L 3100 3319 
L 3100 0 
L 2597 0 
z
" transform="scale(0.015625)"/>
     </defs>
     <use xlink:href="#ArialMT-53"/>
     <use xlink:href="#ArialMT-74" x="66.699219"/>
     <use xlink:href="#ArialMT-61" x="94.482422"/>
     <use xlink:href="#ArialMT-72" x="150.097656"/>
     <use xlink:href="#ArialMT-74" x="183.398438"/>
     <use xlink:href="#ArialMT-20" x="211.181641"/>
     <use xlink:href="#ArialMT-76" x="238.964844"/>
     <use xlink:href="#ArialMT-73" x="288.964844"/>
     <use xlink:href="#ArialMT-20" x="338.964844"/>
     <use xlink:href="#ArialMT-45" x="366.748047"/>
     <use xlink:href="#ArialMT-6e" x="433.447266"/>
     <use xlink:href="#ArialMT-64" x="489.0625"/>
     <use xlink:href="#ArialMT-20" x="544.677734"/>
     <use xlink:href="#ArialMT-53" x="572.460938"/>
     <use xlink:href="#ArialMT-2f" x="639.160156"/>
     <use xlink:href="#ArialMT-4e" x="666.943359"/>
     <use xlink:href="#ArialMT-20" x="739.160156"/>
     <use xlink:href="#ArialMT-56" x="766.943359"/>
     <use xlink:href="#ArialMT-61" x="826.267578"/>
     <use xlink:href="#ArialMT-6c" x="881.882812"/>
     <use xlink:href="#ArialMT-75" x="904.099609"/>
     <use xlink:href="#ArialMT-65" x="959.714844"/>
     <use xlink:href="#ArialMT-73" x="1015.330078"/>
    </g>
   </g>
  </g>
 </g>
 <defs>
  <clipPath id="p2f64b322a3">
   <rect x="55.788" y="31.92" width="288.66" height="274.308"/>
  </clipPath>
 </defs>
</svg>
