<?xml version="1.0" encoding="utf-8" standalone="no"?>
<!DOCTYPE svg PUBLIC "-//W3C//DTD SVG 1.1//EN"
  "http://www.w3.org/Graphics/SVG/1.1/DTD/svg11.dtd">
<svg xmlns:xlink="http://www.w3.org/1999/xlink" width="480pt" height="192pt" viewBox="0 0 480 192" xmlns="http://www.w3.org/2000/svg" version="1.1">
 <metadata>
  <rdf:RDF xmlns:dc="http://purl.org/dc/elements/1.1/" xmlns:cc="http://creativecommons.org/ns#" xmlns:rdf="http://www.w3.org/1999/02/22-rdf-syntax-ns#">
   <cc:Work>
    <dc:type rdf:resource="http://purl.org/dc/dcmitype/StillImage"/>
    <dc:date>2024-01-24T14:07:36.384199</dc:date>
    <dc:format>image/svg+xml</dc:format>
    <dc:creator>
     <cc:Agent>
      <dc:title>Matplotlib v3.7.3, https://matplotlib.org/</dc:title>
     </cc:Agent>
    </dc:creator>
   </cc:Work>
  </rdf:RDF>
 </metadata>
 <defs>
  <style type="text/css">*{stroke-linejoin: round; stroke-linecap: butt}</style>
 </defs>
 <g id="figure_1">
  <g id="patch_1">
   <path d="M 0 192 
L 480 192 
L 480 0 
L 0 0 
z
" style="fill: #ffffff"/>
  </g>
  <g id="axes_1">
   <g id="patch_2">
    <path d="M 60 170.88 
L 237.142857 170.88 
L 237.142857 23.04 
L 60 23.04 
z
" style="fill: #ffffff"/>
   </g>
   <g id="matplotlib.axis_1">
    <g id="xtick_1">
     <g id="text_1">
      <!-- 0.0 -->
      <g style="fill: #262626" transform="translate(52.355 188.253594) scale(0.11 -0.11)">
       <defs>
        <path id="ArialMT-30" d="M 266 2259 
Q 266 3072 433 3567 
Q 600 4063 929 4331 
Q 1259 4600 1759 4600 
Q 2128 4600 2406 4451 
Q 2684 4303 2865 4023 
Q 3047 3744 3150 3342 
Q 3253 2941 3253 2259 
Q 3253 1453 3087 958 
Q 2922 463 2592 192 
Q 2263 -78 1759 -78 
Q 1097 -78 719 397 
Q 266 969 266 2259 
z
M 844 2259 
Q 844 1131 1108 757 
Q 1372 384 1759 384 
Q 2147 384 2411 759 
Q 2675 1134 2675 2259 
Q 2675 3391 2411 3762 
Q 2147 4134 1753 4134 
Q 1366 4134 1134 3806 
Q 844 3388 844 2259 
z
" transform="scale(0.015625)"/>
        <path id="ArialMT-2e" d="M 581 0 
L 581 641 
L 1222 641 
L 1222 0 
L 581 0 
z
" transform="scale(0.015625)"/>
       </defs>
       <use xlink:href="#ArialMT-30"/>
       <use xlink:href="#ArialMT-2e" x="55.615234"/>
       <use xlink:href="#ArialMT-30" x="83.398438"/>
      </g>
     </g>
    </g>
    <g id="xtick_2">
     <g id="text_2">
      <!-- 0.5 -->
      <g style="fill: #262626" transform="translate(107.712143 188.253594) scale(0.11 -0.11)">
       <defs>
        <path id="ArialMT-35" d="M 266 1200 
L 856 1250 
Q 922 819 1161 601 
Q 1400 384 1738 384 
Q 2144 384 2425 690 
Q 2706 997 2706 1503 
Q 2706 1984 2436 2262 
Q 2166 2541 1728 2541 
Q 1456 2541 1237 2417 
Q 1019 2294 894 2097 
L 366 2166 
L 809 4519 
L 3088 4519 
L 3088 3981 
L 1259 3981 
L 1013 2750 
Q 1425 3038 1878 3038 
Q 2478 3038 2890 2622 
Q 3303 2206 3303 1553 
Q 3303 931 2941 478 
Q 2500 -78 1738 -78 
Q 1113 -78 717 272 
Q 322 622 266 1200 
z
" transform="scale(0.015625)"/>
       </defs>
       <use xlink:href="#ArialMT-30"/>
       <use xlink:href="#ArialMT-2e" x="55.615234"/>
       <use xlink:href="#ArialMT-35" x="83.398438"/>
      </g>
     </g>
    </g>
    <g id="xtick_3">
     <g id="text_3">
      <!-- 1.0 -->
      <g style="fill: #262626" transform="translate(163.069286 188.253594) scale(0.11 -0.11)">
       <defs>
        <path id="ArialMT-31" d="M 2384 0 
L 1822 0 
L 1822 3584 
Q 1619 3391 1289 3197 
Q 959 3003 697 2906 
L 697 3450 
Q 1169 3672 1522 3987 
Q 1875 4303 2022 4600 
L 2384 4600 
L 2384 0 
z
" transform="scale(0.015625)"/>
       </defs>
       <use xlink:href="#ArialMT-31"/>
       <use xlink:href="#ArialMT-2e" x="55.615234"/>
       <use xlink:href="#ArialMT-30" x="83.398438"/>
      </g>
     </g>
    </g>
    <g id="xtick_4">
     <g id="text_4">
      <!-- 1.5 -->
      <g style="fill: #262626" transform="translate(218.426429 188.253594) scale(0.11 -0.11)">
       <use xlink:href="#ArialMT-31"/>
       <use xlink:href="#ArialMT-2e" x="55.615234"/>
       <use xlink:href="#ArialMT-35" x="83.398438"/>
      </g>
     </g>
    </g>
   </g>
   <g id="matplotlib.axis_2">
    <g id="ytick_1">
     <g id="text_5">
      <!-- −2 -->
      <g style="fill: #262626" transform="translate(37.958281 174.816797) scale(0.11 -0.11)">
       <defs>
        <path id="ArialMT-2212" d="M 3381 1997 
L 356 1997 
L 356 2522 
L 3381 2522 
L 3381 1997 
z
" transform="scale(0.015625)"/>
        <path id="ArialMT-32" d="M 3222 541 
L 3222 0 
L 194 0 
Q 188 203 259 391 
Q 375 700 629 1000 
Q 884 1300 1366 1694 
Q 2113 2306 2375 2664 
Q 2638 3022 2638 3341 
Q 2638 3675 2398 3904 
Q 2159 4134 1775 4134 
Q 1369 4134 1125 3890 
Q 881 3647 878 3216 
L 300 3275 
Q 359 3922 746 4261 
Q 1134 4600 1788 4600 
Q 2447 4600 2831 4234 
Q 3216 3869 3216 3328 
Q 3216 3053 3103 2787 
Q 2991 2522 2730 2228 
Q 2469 1934 1863 1422 
Q 1356 997 1212 845 
Q 1069 694 975 541 
L 3222 541 
z
" transform="scale(0.015625)"/>
       </defs>
       <use xlink:href="#ArialMT-2212"/>
       <use xlink:href="#ArialMT-32" x="58.398438"/>
      </g>
     </g>
    </g>
    <g id="ytick_2">
     <g id="text_6">
      <!-- 0 -->
      <g style="fill: #262626" transform="translate(44.382969 150.176797) scale(0.11 -0.11)">
       <use xlink:href="#ArialMT-30"/>
      </g>
     </g>
    </g>
    <g id="ytick_3">
     <g id="text_7">
      <!-- 2 -->
      <g style="fill: #262626" transform="translate(44.382969 125.536797) scale(0.11 -0.11)">
       <use xlink:href="#ArialMT-32"/>
      </g>
     </g>
    </g>
    <g id="ytick_4">
     <g id="text_8">
      <!-- 4 -->
      <g style="fill: #262626" transform="translate(44.382969 100.896797) scale(0.11 -0.11)">
       <defs>
        <path id="ArialMT-34" d="M 2069 0 
L 2069 1097 
L 81 1097 
L 81 1613 
L 2172 4581 
L 2631 4581 
L 2631 1613 
L 3250 1613 
L 3250 1097 
L 2631 1097 
L 2631 0 
L 2069 0 
z
M 2069 1613 
L 2069 3678 
L 634 1613 
L 2069 1613 
z
" transform="scale(0.015625)"/>
       </defs>
       <use xlink:href="#ArialMT-34"/>
      </g>
     </g>
    </g>
    <g id="ytick_5">
     <g id="text_9">
      <!-- 6 -->
      <g style="fill: #262626" transform="translate(44.382969 76.256797) scale(0.11 -0.11)">
       <defs>
        <path id="ArialMT-36" d="M 3184 3459 
L 2625 3416 
Q 2550 3747 2413 3897 
Q 2184 4138 1850 4138 
Q 1581 4138 1378 3988 
Q 1113 3794 959 3422 
Q 806 3050 800 2363 
Q 1003 2672 1297 2822 
Q 1591 2972 1913 2972 
Q 2475 2972 2870 2558 
Q 3266 2144 3266 1488 
Q 3266 1056 3080 686 
Q 2894 316 2569 119 
Q 2244 -78 1831 -78 
Q 1128 -78 684 439 
Q 241 956 241 2144 
Q 241 3472 731 4075 
Q 1159 4600 1884 4600 
Q 2425 4600 2770 4297 
Q 3116 3994 3184 3459 
z
M 888 1484 
Q 888 1194 1011 928 
Q 1134 663 1356 523 
Q 1578 384 1822 384 
Q 2178 384 2434 671 
Q 2691 959 2691 1453 
Q 2691 1928 2437 2201 
Q 2184 2475 1800 2475 
Q 1419 2475 1153 2201 
Q 888 1928 888 1484 
z
" transform="scale(0.015625)"/>
       </defs>
       <use xlink:href="#ArialMT-36"/>
      </g>
     </g>
    </g>
    <g id="ytick_6">
     <g id="text_10">
      <!-- 8 -->
      <g style="fill: #262626" transform="translate(44.382969 51.616797) scale(0.11 -0.11)">
       <defs>
        <path id="ArialMT-38" d="M 1131 2484 
Q 781 2613 612 2850 
Q 444 3088 444 3419 
Q 444 3919 803 4259 
Q 1163 4600 1759 4600 
Q 2359 4600 2725 4251 
Q 3091 3903 3091 3403 
Q 3091 3084 2923 2848 
Q 2756 2613 2416 2484 
Q 2838 2347 3058 2040 
Q 3278 1734 3278 1309 
Q 3278 722 2862 322 
Q 2447 -78 1769 -78 
Q 1091 -78 675 323 
Q 259 725 259 1325 
Q 259 1772 486 2073 
Q 713 2375 1131 2484 
z
M 1019 3438 
Q 1019 3113 1228 2906 
Q 1438 2700 1772 2700 
Q 2097 2700 2305 2904 
Q 2513 3109 2513 3406 
Q 2513 3716 2298 3927 
Q 2084 4138 1766 4138 
Q 1444 4138 1231 3931 
Q 1019 3725 1019 3438 
z
M 838 1322 
Q 838 1081 952 856 
Q 1066 631 1291 507 
Q 1516 384 1775 384 
Q 2178 384 2440 643 
Q 2703 903 2703 1303 
Q 2703 1709 2433 1975 
Q 2163 2241 1756 2241 
Q 1359 2241 1098 1978 
Q 838 1716 838 1322 
z
" transform="scale(0.015625)"/>
       </defs>
       <use xlink:href="#ArialMT-38"/>
      </g>
     </g>
    </g>
    <g id="ytick_7">
     <g id="text_11">
      <!-- 10 -->
      <g style="fill: #262626" transform="translate(38.265937 26.976797) scale(0.11 -0.11)">
       <use xlink:href="#ArialMT-31"/>
       <use xlink:href="#ArialMT-30" x="55.615234"/>
      </g>
     </g>
    </g>
   </g>
   <g id="LineCollection_1">
    <path d="M 82.142857 146.24 
L 170.415884 146.24 
" clip-path="url(#p429f9b1822)" style="fill: none; stroke: #0000ff; stroke-width: 1.5"/>
   </g>
   <g id="LineCollection_2">
    <path d="M 82.142857 152.4 
L 172.530124 152.4 
" clip-path="url(#p429f9b1822)" style="fill: none; stroke: #ff0000; stroke-width: 1.5"/>
   </g>
   <g id="LineCollection_3">
    <path d="M 82.142857 133.92 
L 165.866141 133.92 
" clip-path="url(#p429f9b1822)" style="fill: none; stroke: #0000ff; stroke-width: 1.5"/>
   </g>
   <g id="LineCollection_4">
    <path d="M 82.142857 140.08 
L 169.336233 140.08 
" clip-path="url(#p429f9b1822)" style="fill: none; stroke: #ff0000; stroke-width: 1.5"/>
   </g>
   <g id="LineCollection_5">
    <path d="M 82.142857 121.6 
L 163.316807 121.6 
" clip-path="url(#p429f9b1822)" style="fill: none; stroke: #0000ff; stroke-width: 1.5"/>
   </g>
   <g id="LineCollection_6">
    <path d="M 82.142857 127.76 
L 168.928878 127.76 
" clip-path="url(#p429f9b1822)" style="fill: none; stroke: #ff0000; stroke-width: 1.5"/>
   </g>
   <g id="LineCollection_7">
    <path d="M 82.142857 109.28 
L 160.582711 109.28 
" clip-path="url(#p429f9b1822)" style="fill: none; stroke: #0000ff; stroke-width: 1.5"/>
   </g>
   <g id="LineCollection_8">
    <path d="M 82.142857 115.44 
L 163.847199 115.44 
" clip-path="url(#p429f9b1822)" style="fill: none; stroke: #ff0000; stroke-width: 1.5"/>
   </g>
   <g id="LineCollection_9">
    <path d="M 82.142857 96.96 
L 156.768494 96.96 
" clip-path="url(#p429f9b1822)" style="fill: none; stroke: #0000ff; stroke-width: 1.5"/>
   </g>
   <g id="LineCollection_10">
    <path d="M 82.142857 103.12 
L 157.638859 103.12 
" clip-path="url(#p429f9b1822)" style="fill: none; stroke: #ff0000; stroke-width: 1.5"/>
   </g>
   <g id="LineCollection_11">
    <path d="M 82.142857 84.64 
L 150.672018 84.64 
" clip-path="url(#p429f9b1822)" style="fill: none; stroke: #0000ff; stroke-width: 1.5"/>
   </g>
   <g id="LineCollection_12">
    <path d="M 82.142857 90.8 
L 149.885441 90.8 
" clip-path="url(#p429f9b1822)" style="fill: none; stroke: #ff0000; stroke-width: 1.5"/>
   </g>
   <g id="LineCollection_13">
    <path d="M 82.142857 72.32 
L 140.936388 72.32 
" clip-path="url(#p429f9b1822)" style="fill: none; stroke: #0000ff; stroke-width: 1.5"/>
   </g>
   <g id="LineCollection_14">
    <path d="M 82.142857 78.48 
L 136.00988 78.48 
" clip-path="url(#p429f9b1822)" style="fill: none; stroke: #ff0000; stroke-width: 1.5"/>
   </g>
   <g id="LineCollection_15">
    <path d="M 82.142857 60 
L 127.636842 60 
" clip-path="url(#p429f9b1822)" style="fill: none; stroke: #0000ff; stroke-width: 1.5"/>
   </g>
   <g id="LineCollection_16">
    <path d="M 82.142857 66.16 
L 121.827455 66.16 
" clip-path="url(#p429f9b1822)" style="fill: none; stroke: #ff0000; stroke-width: 1.5"/>
   </g>
   <g id="LineCollection_17">
    <path d="M 82.142857 47.68 
L 112.892173 47.68 
" clip-path="url(#p429f9b1822)" style="fill: none; stroke: #0000ff; stroke-width: 1.5"/>
   </g>
   <g id="LineCollection_18">
    <path d="M 82.142857 53.84 
L 108.357248 53.84 
" clip-path="url(#p429f9b1822)" style="fill: none; stroke: #ff0000; stroke-width: 1.5"/>
   </g>
   <g id="LineCollection_19">
    <path d="M 82.142857 35.36 
L 98.585916 35.36 
" clip-path="url(#p429f9b1822)" style="fill: none; stroke: #0000ff; stroke-width: 1.5"/>
   </g>
   <g id="LineCollection_20">
    <path d="M 82.142857 41.52 
L 96.127468 41.52 
" clip-path="url(#p429f9b1822)" style="fill: none; stroke: #ff0000; stroke-width: 1.5"/>
   </g>
   <g id="patch_3">
    <path d="M 60 170.88 
L 60 23.04 
" style="fill: none; stroke: #262626; stroke-width: 1.25; stroke-linejoin: miter; stroke-linecap: square"/>
   </g>
   <g id="patch_4">
    <path d="M 237.142857 170.88 
L 237.142857 23.04 
" style="fill: none; stroke: #262626; stroke-width: 1.25; stroke-linejoin: miter; stroke-linecap: square"/>
   </g>
   <g id="patch_5">
    <path d="M 60 170.88 
L 237.142857 170.88 
" style="fill: none; stroke: #262626; stroke-width: 1.25; stroke-linejoin: miter; stroke-linecap: square"/>
   </g>
   <g id="patch_6">
    <path d="M 60 23.04 
L 237.142857 23.04 
" style="fill: none; stroke: #262626; stroke-width: 1.25; stroke-linejoin: miter; stroke-linecap: square"/>
   </g>
  </g>
  <g id="axes_2">
   <g id="patch_7">
    <path d="M 254.857143 170.88 
L 432 170.88 
L 432 23.04 
L 254.857143 23.04 
z
" style="fill: #ffffff"/>
   </g>
   <g id="matplotlib.axis_3">
    <g id="xtick_5">
     <g id="text_12">
      <!-- 0.0 -->
      <g style="fill: #262626" transform="translate(247.212143 188.253594) scale(0.11 -0.11)">
       <use xlink:href="#ArialMT-30"/>
       <use xlink:href="#ArialMT-2e" x="55.615234"/>
       <use xlink:href="#ArialMT-30" x="83.398438"/>
      </g>
     </g>
    </g>
    <g id="xtick_6">
     <g id="text_13">
      <!-- 0.5 -->
      <g style="fill: #262626" transform="translate(302.569286 188.253594) scale(0.11 -0.11)">
       <use xlink:href="#ArialMT-30"/>
       <use xlink:href="#ArialMT-2e" x="55.615234"/>
       <use xlink:href="#ArialMT-35" x="83.398438"/>
      </g>
     </g>
    </g>
    <g id="xtick_7">
     <g id="text_14">
      <!-- 1.0 -->
      <g style="fill: #262626" transform="translate(357.926429 188.253594) scale(0.11 -0.11)">
       <use xlink:href="#ArialMT-31"/>
       <use xlink:href="#ArialMT-2e" x="55.615234"/>
       <use xlink:href="#ArialMT-30" x="83.398438"/>
      </g>
     </g>
    </g>
    <g id="xtick_8">
     <g id="text_15">
      <!-- 1.5 -->
      <g style="fill: #262626" transform="translate(413.283571 188.253594) scale(0.11 -0.11)">
       <use xlink:href="#ArialMT-31"/>
       <use xlink:href="#ArialMT-2e" x="55.615234"/>
       <use xlink:href="#ArialMT-35" x="83.398438"/>
      </g>
     </g>
    </g>
   </g>
   <g id="matplotlib.axis_4">
    <g id="ytick_8"/>
    <g id="ytick_9"/>
    <g id="ytick_10"/>
    <g id="ytick_11"/>
    <g id="ytick_12"/>
    <g id="ytick_13"/>
    <g id="ytick_14"/>
   </g>
   <g id="LineCollection_21">
    <path d="M 277 146.24 
L 395.725571 146.24 
" clip-path="url(#p78572b344d)" style="fill: none; stroke: #0000ff; stroke-width: 1.5"/>
   </g>
   <g id="LineCollection_22">
    <path d="M 277 152.4 
L 392.006529 152.4 
" clip-path="url(#p78572b344d)" style="fill: none; stroke: #ff0000; stroke-width: 1.5"/>
   </g>
   <g id="LineCollection_23">
    <path d="M 277 133.92 
L 387.271764 133.92 
" clip-path="url(#p78572b344d)" style="fill: none; stroke: #0000ff; stroke-width: 1.5"/>
   </g>
   <g id="LineCollection_24">
    <path d="M 277 140.08 
L 387.621549 140.08 
" clip-path="url(#p78572b344d)" style="fill: none; stroke: #ff0000; stroke-width: 1.5"/>
   </g>
   <g id="LineCollection_25">
    <path d="M 277 121.6 
L 380.367768 121.6 
" clip-path="url(#p78572b344d)" style="fill: none; stroke: #0000ff; stroke-width: 1.5"/>
   </g>
   <g id="LineCollection_26">
    <path d="M 277 127.76 
L 378.670793 127.76 
" clip-path="url(#p78572b344d)" style="fill: none; stroke: #ff0000; stroke-width: 1.5"/>
   </g>
   <g id="LineCollection_27">
    <path d="M 277 109.28 
L 372.065977 109.28 
" clip-path="url(#p78572b344d)" style="fill: none; stroke: #0000ff; stroke-width: 1.5"/>
   </g>
   <g id="LineCollection_28">
    <path d="M 277 115.44 
L 368.569718 115.44 
" clip-path="url(#p78572b344d)" style="fill: none; stroke: #ff0000; stroke-width: 1.5"/>
   </g>
   <g id="LineCollection_29">
    <path d="M 277 96.96 
L 361.236046 96.96 
" clip-path="url(#p78572b344d)" style="fill: none; stroke: #0000ff; stroke-width: 1.5"/>
   </g>
   <g id="LineCollection_30">
    <path d="M 277 103.12 
L 362.758398 103.12 
" clip-path="url(#p78572b344d)" style="fill: none; stroke: #ff0000; stroke-width: 1.5"/>
   </g>
   <g id="LineCollection_31">
    <path d="M 277 84.64 
L 348.350046 84.64 
" clip-path="url(#p78572b344d)" style="fill: none; stroke: #0000ff; stroke-width: 1.5"/>
   </g>
   <g id="LineCollection_32">
    <path d="M 277 90.8 
L 350.967475 90.8 
" clip-path="url(#p78572b344d)" style="fill: none; stroke: #ff0000; stroke-width: 1.5"/>
   </g>
   <g id="LineCollection_33">
    <path d="M 277 72.32 
L 333.968273 72.32 
" clip-path="url(#p78572b344d)" style="fill: none; stroke: #0000ff; stroke-width: 1.5"/>
   </g>
   <g id="LineCollection_34">
    <path d="M 277 78.48 
L 337.833777 78.48 
" clip-path="url(#p78572b344d)" style="fill: none; stroke: #ff0000; stroke-width: 1.5"/>
   </g>
   <g id="LineCollection_35">
    <path d="M 277 60 
L 319.324015 60 
" clip-path="url(#p78572b344d)" style="fill: none; stroke: #0000ff; stroke-width: 1.5"/>
   </g>
   <g id="LineCollection_36">
    <path d="M 277 66.16 
L 321.382385 66.16 
" clip-path="url(#p78572b344d)" style="fill: none; stroke: #ff0000; stroke-width: 1.5"/>
   </g>
   <g id="LineCollection_37">
    <path d="M 277 47.68 
L 305.566362 47.68 
" clip-path="url(#p78572b344d)" style="fill: none; stroke: #0000ff; stroke-width: 1.5"/>
   </g>
   <g id="LineCollection_38">
    <path d="M 277 53.84 
L 307.308406 53.84 
" clip-path="url(#p78572b344d)" style="fill: none; stroke: #ff0000; stroke-width: 1.5"/>
   </g>
   <g id="LineCollection_39">
    <path d="M 277 35.36 
L 292.989389 35.36 
" clip-path="url(#p78572b344d)" style="fill: none; stroke: #0000ff; stroke-width: 1.5"/>
   </g>
   <g id="LineCollection_40">
    <path d="M 277 41.52 
L 293.216298 41.52 
" clip-path="url(#p78572b344d)" style="fill: none; stroke: #ff0000; stroke-width: 1.5"/>
   </g>
   <g id="patch_8">
    <path d="M 254.857143 170.88 
L 254.857143 23.04 
" style="fill: none; stroke: #262626; stroke-width: 1.25; stroke-linejoin: miter; stroke-linecap: square"/>
   </g>
   <g id="patch_9">
    <path d="M 432 170.88 
L 432 23.04 
" style="fill: none; stroke: #262626; stroke-width: 1.25; stroke-linejoin: miter; stroke-linecap: square"/>
   </g>
   <g id="patch_10">
    <path d="M 254.857143 170.88 
L 432 170.88 
" style="fill: none; stroke: #262626; stroke-width: 1.25; stroke-linejoin: miter; stroke-linecap: square"/>
   </g>
   <g id="patch_11">
    <path d="M 254.857143 23.04 
L 432 23.04 
" style="fill: none; stroke: #262626; stroke-width: 1.25; stroke-linejoin: miter; stroke-linecap: square"/>
   </g>
  </g>
 </g>
 <defs>
  <clipPath id="p429f9b1822">
   <rect x="60" y="23.04" width="177.142857" height="147.84"/>
  </clipPath>
  <clipPath id="p78572b344d">
   <rect x="254.857143" y="23.04" width="177.142857" height="147.84"/>
  </clipPath>
 </defs>
</svg>
