<?xml version="1.0" encoding="utf-8" standalone="no"?>
<!DOCTYPE svg PUBLIC "-//W3C//DTD SVG 1.1//EN"
  "http://www.w3.org/Graphics/SVG/1.1/DTD/svg11.dtd">
<svg xmlns:xlink="http://www.w3.org/1999/xlink" width="144pt" height="144pt" viewBox="0 0 144 144" xmlns="http://www.w3.org/2000/svg" version="1.1">
 <metadata>
  <rdf:RDF xmlns:dc="http://purl.org/dc/elements/1.1/" xmlns:cc="http://creativecommons.org/ns#" xmlns:rdf="http://www.w3.org/1999/02/22-rdf-syntax-ns#">
   <cc:Work>
    <dc:type rdf:resource="http://purl.org/dc/dcmitype/StillImage"/>
    <dc:date>2023-12-24T17:03:59.169137</dc:date>
    <dc:format>image/svg+xml</dc:format>
    <dc:creator>
     <cc:Agent>
      <dc:title>Matplotlib v3.7.3, https://matplotlib.org/</dc:title>
     </cc:Agent>
    </dc:creator>
   </cc:Work>
  </rdf:RDF>
 </metadata>
 <defs>
  <style type="text/css">*{stroke-linejoin: round; stroke-linecap: butt}</style>
 </defs>
 <g id="figure_1">
  <g id="patch_1">
   <path d="M 0 144 
L 144 144 
L 144 0 
L 0 0 
z
" style="fill: #ffffff"/>
  </g>
  <g id="axes_1">
   <g id="patch_2">
    <path d="M 18 128.16 
L 129.6 128.16 
L 129.6 17.28 
L 18 17.28 
z
" style="fill: #ffffff"/>
   </g>
   <g id="PolyCollection_1">
    <path d="M 48.282538 123.12 
L 43.517462 123.12 
L 42.801799 122.101818 
L 42.025305 121.083636 
L 41.221706 120.065455 
L 40.426813 119.047273 
L 39.675664 118.029091 
L 39.000896 117.010909 
L 38.431519 115.992727 
L 37.991001 114.974545 
L 37.69424 113.956364 
L 37.544217 112.938182 
L 37.53 111.92 
L 37.627683 110.901818 
L 37.804752 109.883636 
L 38.026879 108.865455 
L 38.265071 107.847273 
L 38.500982 106.829091 
L 38.728935 105.810909 
L 38.954383 104.792727 
L 39.189625 103.774545 
L 39.448208 102.756364 
L 39.73963 101.738182 
L 40.065674 100.72 
L 40.419185 99.701818 
L 40.785435 98.683636 
L 41.145503 97.665455 
L 41.480648 96.647273 
L 41.776436 95.629091 
L 42.025639 94.610909 
L 42.229314 93.592727 
L 42.395991 92.574545 
L 42.539299 91.556364 
L 42.674619 90.538182 
L 42.815564 89.52 
L 42.971136 88.501818 
L 43.144225 87.483636 
L 43.331765 86.465455 
L 43.526257 85.447273 
L 43.717984 84.429091 
L 43.897139 83.410909 
L 44.055329 82.392727 
L 44.186391 81.374545 
L 44.286765 80.356364 
L 44.355719 79.338182 
L 44.395523 78.32 
L 44.411431 77.301818 
L 44.411247 76.283636 
L 44.404335 75.265455 
L 44.400222 74.247273 
L 44.407086 73.229091 
L 44.430561 72.210909 
L 44.47314 71.192727 
L 44.534275 70.174545 
L 44.611045 69.156364 
L 44.699142 68.138182 
L 44.793851 67.12 
L 44.890808 66.101818 
L 44.986409 65.083636 
L 45.07789 64.065455 
L 45.163194 63.047273 
L 45.2408 62.029091 
L 45.309613 61.010909 
L 45.36896 59.992727 
L 45.418634 58.974545 
L 45.458957 57.956364 
L 45.49081 56.938182 
L 45.515641 55.92 
L 45.535412 54.901818 
L 45.552431 53.883636 
L 45.569037 52.865455 
L 45.58714 51.847273 
L 45.607781 50.829091 
L 45.630888 49.810909 
L 45.655384 48.792727 
L 45.679647 47.774545 
L 45.702153 46.756364 
L 45.722023 45.738182 
L 45.73926 44.72 
L 45.75459 43.701818 
L 45.76903 42.683636 
L 45.783418 41.665455 
L 45.798106 40.647273 
L 45.812935 39.629091 
L 45.827415 38.610909 
L 45.840989 37.592727 
L 45.853225 36.574545 
L 45.863882 35.556364 
L 45.872869 34.538182 
L 45.880173 33.52 
L 45.885799 32.501818 
L 45.889754 31.483636 
L 45.892063 30.465455 
L 45.892787 29.447273 
L 45.892061 28.429091 
L 45.890123 27.410909 
L 45.887348 26.392727 
L 45.884245 25.374545 
L 45.881411 24.356364 
L 45.879427 23.338182 
L 45.878722 22.32 
L 45.921278 22.32 
L 45.921278 22.32 
L 45.920573 23.338182 
L 45.918589 24.356364 
L 45.915755 25.374545 
L 45.912652 26.392727 
L 45.909877 27.410909 
L 45.907939 28.429091 
L 45.907213 29.447273 
L 45.907937 30.465455 
L 45.910246 31.483636 
L 45.914201 32.501818 
L 45.919827 33.52 
L 45.927131 34.538182 
L 45.936118 35.556364 
L 45.946775 36.574545 
L 45.959011 37.592727 
L 45.972585 38.610909 
L 45.987065 39.629091 
L 46.001894 40.647273 
L 46.016582 41.665455 
L 46.03097 42.683636 
L 46.04541 43.701818 
L 46.06074 44.72 
L 46.077977 45.738182 
L 46.097847 46.756364 
L 46.120353 47.774545 
L 46.144616 48.792727 
L 46.169112 49.810909 
L 46.192219 50.829091 
L 46.21286 51.847273 
L 46.230963 52.865455 
L 46.247569 53.883636 
L 46.264588 54.901818 
L 46.284359 55.92 
L 46.30919 56.938182 
L 46.341043 57.956364 
L 46.381366 58.974545 
L 46.43104 59.992727 
L 46.490387 61.010909 
L 46.5592 62.029091 
L 46.636806 63.047273 
L 46.72211 64.065455 
L 46.813591 65.083636 
L 46.909192 66.101818 
L 47.006149 67.12 
L 47.100858 68.138182 
L 47.188955 69.156364 
L 47.265725 70.174545 
L 47.32686 71.192727 
L 47.369439 72.210909 
L 47.392914 73.229091 
L 47.399778 74.247273 
L 47.395665 75.265455 
L 47.388753 76.283636 
L 47.388569 77.301818 
L 47.404477 78.32 
L 47.444281 79.338182 
L 47.513235 80.356364 
L 47.613609 81.374545 
L 47.744671 82.392727 
L 47.902861 83.410909 
L 48.082016 84.429091 
L 48.273743 85.447273 
L 48.468235 86.465455 
L 48.655775 87.483636 
L 48.828864 88.501818 
L 48.984436 89.52 
L 49.125381 90.538182 
L 49.260701 91.556364 
L 49.404009 92.574545 
L 49.570686 93.592727 
L 49.774361 94.610909 
L 50.023564 95.629091 
L 50.319352 96.647273 
L 50.654497 97.665455 
L 51.014565 98.683636 
L 51.380815 99.701818 
L 51.734326 100.72 
L 52.06037 101.738182 
L 52.351792 102.756364 
L 52.610375 103.774545 
L 52.845617 104.792727 
L 53.071065 105.810909 
L 53.299018 106.829091 
L 53.534929 107.847273 
L 53.773121 108.865455 
L 53.995248 109.883636 
L 54.172317 110.901818 
L 54.27 111.92 
L 54.255783 112.938182 
L 54.10576 113.956364 
L 53.808999 114.974545 
L 53.368481 115.992727 
L 52.799104 117.010909 
L 52.124336 118.029091 
L 51.373187 119.047273 
L 50.578294 120.065455 
L 49.774695 121.083636 
L 48.998201 122.101818 
L 48.282538 123.12 
z
" clip-path="url(#p3538967a08)" style="fill: #ff4500; fill-opacity: 0.7"/>
   </g>
   <g id="PolyCollection_2">
    <path d="M 104.223571 116.389114 
L 99.176429 116.389114 
L 98.859742 115.865687 
L 98.554221 115.34226 
L 98.265107 114.818833 
L 97.995059 114.295406 
L 97.743906 113.771979 
L 97.508802 113.248552 
L 97.284738 112.725125 
L 97.065339 112.201698 
L 96.843817 111.678271 
L 96.613934 111.154844 
L 96.37086 110.631417 
L 96.111804 110.10799 
L 95.83637 109.584563 
L 95.546619 109.061137 
L 95.246868 108.53771 
L 94.943294 108.014283 
L 94.643409 107.490856 
L 94.355523 106.967429 
L 94.08822 106.444002 
L 93.849928 105.920575 
L 93.648541 105.397148 
L 93.491099 104.873721 
L 93.383468 104.350294 
L 93.33 103.826867 
L 93.333173 103.30344 
L 93.393255 102.780013 
L 93.508069 102.256586 
L 93.672943 101.733159 
L 93.8809 101.209732 
L 94.123135 100.686305 
L 94.389715 100.162878 
L 94.670411 99.639451 
L 94.955537 99.116024 
L 95.236655 98.592597 
L 95.507045 98.06917 
L 95.761908 97.545743 
L 95.998317 97.022316 
L 96.214996 96.498889 
L 96.412027 95.975462 
L 96.590562 95.452035 
L 96.752605 94.928608 
L 96.900842 94.405181 
L 97.038508 93.881754 
L 97.169203 93.358327 
L 97.296638 92.8349 
L 97.424286 92.311473 
L 97.554984 91.788046 
L 97.690576 91.264619 
L 97.831665 90.741192 
L 97.977591 90.217765 
L 98.126643 89.694338 
L 98.276495 89.170911 
L 98.424778 88.647484 
L 98.569663 88.124057 
L 98.710312 87.60063 
L 98.847099 87.077203 
L 98.981551 86.553776 
L 99.116007 86.030349 
L 99.253109 85.506922 
L 99.395215 84.983495 
L 99.54389 84.460068 
L 99.699571 83.936641 
L 99.861466 83.413214 
L 100.027685 82.889787 
L 100.195545 82.36636 
L 100.361966 81.842933 
L 100.523867 81.319506 
L 100.678486 80.796079 
L 100.823582 80.272652 
L 100.957514 79.749225 
L 101.079229 79.225798 
L 101.188184 78.702371 
L 101.284253 78.178944 
L 101.367642 77.655517 
L 101.438822 77.13209 
L 101.49848 76.608663 
L 101.547489 76.085236 
L 101.586863 75.561809 
L 101.617712 75.038382 
L 101.641184 74.514955 
L 101.658394 73.991528 
L 101.670359 73.468101 
L 101.677945 72.944674 
L 101.681823 72.421247 
L 101.682459 71.89782 
L 101.68012 71.374393 
L 101.674919 70.850966 
L 101.666873 70.327539 
L 101.655989 69.804112 
L 101.642352 69.280685 
L 101.626213 68.757258 
L 101.608063 68.233831 
L 101.588663 67.710404 
L 101.56904 67.186977 
L 101.550418 66.66355 
L 101.534115 66.140123 
L 101.52139 65.616696 
L 101.51329 65.093269 
L 101.510509 64.569842 
L 101.889491 64.569842 
L 101.889491 64.569842 
L 101.88671 65.093269 
L 101.87861 65.616696 
L 101.865885 66.140123 
L 101.849582 66.66355 
L 101.83096 67.186977 
L 101.811337 67.710404 
L 101.791937 68.233831 
L 101.773787 68.757258 
L 101.757648 69.280685 
L 101.744011 69.804112 
L 101.733127 70.327539 
L 101.725081 70.850966 
L 101.71988 71.374393 
L 101.717541 71.89782 
L 101.718177 72.421247 
L 101.722055 72.944674 
L 101.729641 73.468101 
L 101.741606 73.991528 
L 101.758816 74.514955 
L 101.782288 75.038382 
L 101.813137 75.561809 
L 101.852511 76.085236 
L 101.90152 76.608663 
L 101.961178 77.13209 
L 102.032358 77.655517 
L 102.115747 78.178944 
L 102.211816 78.702371 
L 102.320771 79.225798 
L 102.442486 79.749225 
L 102.576418 80.272652 
L 102.721514 80.796079 
L 102.876133 81.319506 
L 103.038034 81.842933 
L 103.204455 82.36636 
L 103.372315 82.889787 
L 103.538534 83.413214 
L 103.700429 83.936641 
L 103.85611 84.460068 
L 104.004785 84.983495 
L 104.146891 85.506922 
L 104.283993 86.030349 
L 104.418449 86.553776 
L 104.552901 87.077203 
L 104.689688 87.60063 
L 104.830337 88.124057 
L 104.975222 88.647484 
L 105.123505 89.170911 
L 105.273357 89.694338 
L 105.422409 90.217765 
L 105.568335 90.741192 
L 105.709424 91.264619 
L 105.845016 91.788046 
L 105.975714 92.311473 
L 106.103362 92.8349 
L 106.230797 93.358327 
L 106.361492 93.881754 
L 106.499158 94.405181 
L 106.647395 94.928608 
L 106.809438 95.452035 
L 106.987973 95.975462 
L 107.185004 96.498889 
L 107.401683 97.022316 
L 107.638092 97.545743 
L 107.892955 98.06917 
L 108.163345 98.592597 
L 108.444463 99.116024 
L 108.729589 99.639451 
L 109.010285 100.162878 
L 109.276865 100.686305 
L 109.5191 101.209732 
L 109.727057 101.733159 
L 109.891931 102.256586 
L 110.006745 102.780013 
L 110.066827 103.30344 
L 110.07 103.826867 
L 110.016532 104.350294 
L 109.908901 104.873721 
L 109.751459 105.397148 
L 109.550072 105.920575 
L 109.31178 106.444002 
L 109.044477 106.967429 
L 108.756591 107.490856 
L 108.456706 108.014283 
L 108.153132 108.53771 
L 107.853381 109.061137 
L 107.56363 109.584563 
L 107.288196 110.10799 
L 107.02914 110.631417 
L 106.786066 111.154844 
L 106.556183 111.678271 
L 106.334661 112.201698 
L 106.115262 112.725125 
L 105.891198 113.248552 
L 105.656094 113.771979 
L 105.404941 114.295406 
L 105.134893 114.818833 
L 104.845779 115.34226 
L 104.540258 115.865687 
L 104.223571 116.389114 
z
" clip-path="url(#p3538967a08)" style="fill: #ff4500; fill-opacity: 0.7"/>
   </g>
   <g id="matplotlib.axis_1">
    <g id="xtick_1">
     <g id="line2d_1">
      <defs>
       <path id="m7a783085eb" d="M 0 0 
L 0 3.5 
" style="stroke: #000000; stroke-width: 0.8"/>
      </defs>
      <g>
       <use xlink:href="#m7a783085eb" x="45.9" y="128.16" style="stroke: #000000; stroke-width: 0.8"/>
      </g>
     </g>
     <g id="text_1">
      <!-- 0 -->
      <g transform="translate(42.71875 142.758438) scale(0.1 -0.1)">
       <defs>
        <path id="DejaVuSans-30" d="M 2034 4250 
Q 1547 4250 1301 3770 
Q 1056 3291 1056 2328 
Q 1056 1369 1301 889 
Q 1547 409 2034 409 
Q 2525 409 2770 889 
Q 3016 1369 3016 2328 
Q 3016 3291 2770 3770 
Q 2525 4250 2034 4250 
z
M 2034 4750 
Q 2819 4750 3233 4129 
Q 3647 3509 3647 2328 
Q 3647 1150 3233 529 
Q 2819 -91 2034 -91 
Q 1250 -91 836 529 
Q 422 1150 422 2328 
Q 422 3509 836 4129 
Q 1250 4750 2034 4750 
z
" transform="scale(0.015625)"/>
       </defs>
       <use xlink:href="#DejaVuSans-30"/>
      </g>
     </g>
    </g>
    <g id="xtick_2">
     <g id="line2d_2">
      <g>
       <use xlink:href="#m7a783085eb" x="101.7" y="128.16" style="stroke: #000000; stroke-width: 0.8"/>
      </g>
     </g>
     <g id="text_2">
      <!-- 1 -->
      <g transform="translate(98.51875 142.758438) scale(0.1 -0.1)">
       <defs>
        <path id="DejaVuSans-31" d="M 794 531 
L 1825 531 
L 1825 4091 
L 703 3866 
L 703 4441 
L 1819 4666 
L 2450 4666 
L 2450 531 
L 3481 531 
L 3481 0 
L 794 0 
L 794 531 
z
" transform="scale(0.015625)"/>
       </defs>
       <use xlink:href="#DejaVuSans-31"/>
      </g>
     </g>
    </g>
   </g>
   <g id="matplotlib.axis_2">
    <g id="ytick_1">
     <g id="line2d_3">
      <defs>
       <path id="mb78a939d91" d="M 0 0 
L -3.5 0 
" style="stroke: #000000; stroke-width: 0.8"/>
      </defs>
      <g>
       <use xlink:href="#mb78a939d91" x="18" y="104.340568" style="stroke: #000000; stroke-width: 0.8"/>
      </g>
     </g>
     <g id="text_3">
      <!-- 0.2 -->
      <g transform="translate(-4.903125 108.139787) scale(0.1 -0.1)">
       <defs>
        <path id="DejaVuSans-2e" d="M 684 794 
L 1344 794 
L 1344 0 
L 684 0 
L 684 794 
z
" transform="scale(0.015625)"/>
        <path id="DejaVuSans-32" d="M 1228 531 
L 3431 531 
L 3431 0 
L 469 0 
L 469 531 
Q 828 903 1448 1529 
Q 2069 2156 2228 2338 
Q 2531 2678 2651 2914 
Q 2772 3150 2772 3378 
Q 2772 3750 2511 3984 
Q 2250 4219 1831 4219 
Q 1534 4219 1204 4116 
Q 875 4013 500 3803 
L 500 4441 
Q 881 4594 1212 4672 
Q 1544 4750 1819 4750 
Q 2544 4750 2975 4387 
Q 3406 4025 3406 3419 
Q 3406 3131 3298 2873 
Q 3191 2616 2906 2266 
Q 2828 2175 2409 1742 
Q 1991 1309 1228 531 
z
" transform="scale(0.015625)"/>
       </defs>
       <use xlink:href="#DejaVuSans-30"/>
       <use xlink:href="#DejaVuSans-2e" x="63.623047"/>
       <use xlink:href="#DejaVuSans-32" x="95.410156"/>
      </g>
     </g>
    </g>
    <g id="ytick_2">
     <g id="line2d_4">
      <g>
       <use xlink:href="#mb78a939d91" x="18" y="80.209236" style="stroke: #000000; stroke-width: 0.8"/>
      </g>
     </g>
     <g id="text_4">
      <!-- 0.4 -->
      <g transform="translate(-4.903125 84.008454) scale(0.1 -0.1)">
       <defs>
        <path id="DejaVuSans-34" d="M 2419 4116 
L 825 1625 
L 2419 1625 
L 2419 4116 
z
M 2253 4666 
L 3047 4666 
L 3047 1625 
L 3713 1625 
L 3713 1100 
L 3047 1100 
L 3047 0 
L 2419 0 
L 2419 1100 
L 313 1100 
L 313 1709 
L 2253 4666 
z
" transform="scale(0.015625)"/>
       </defs>
       <use xlink:href="#DejaVuSans-30"/>
       <use xlink:href="#DejaVuSans-2e" x="63.623047"/>
       <use xlink:href="#DejaVuSans-34" x="95.410156"/>
      </g>
     </g>
    </g>
    <g id="ytick_3">
     <g id="line2d_5">
      <g>
       <use xlink:href="#mb78a939d91" x="18" y="56.077904" style="stroke: #000000; stroke-width: 0.8"/>
      </g>
     </g>
     <g id="text_5">
      <!-- 0.6 -->
      <g transform="translate(-4.903125 59.877122) scale(0.1 -0.1)">
       <defs>
        <path id="DejaVuSans-36" d="M 2113 2584 
Q 1688 2584 1439 2293 
Q 1191 2003 1191 1497 
Q 1191 994 1439 701 
Q 1688 409 2113 409 
Q 2538 409 2786 701 
Q 3034 994 3034 1497 
Q 3034 2003 2786 2293 
Q 2538 2584 2113 2584 
z
M 3366 4563 
L 3366 3988 
Q 3128 4100 2886 4159 
Q 2644 4219 2406 4219 
Q 1781 4219 1451 3797 
Q 1122 3375 1075 2522 
Q 1259 2794 1537 2939 
Q 1816 3084 2150 3084 
Q 2853 3084 3261 2657 
Q 3669 2231 3669 1497 
Q 3669 778 3244 343 
Q 2819 -91 2113 -91 
Q 1303 -91 875 529 
Q 447 1150 447 2328 
Q 447 3434 972 4092 
Q 1497 4750 2381 4750 
Q 2619 4750 2861 4703 
Q 3103 4656 3366 4563 
z
" transform="scale(0.015625)"/>
       </defs>
       <use xlink:href="#DejaVuSans-30"/>
       <use xlink:href="#DejaVuSans-2e" x="63.623047"/>
       <use xlink:href="#DejaVuSans-36" x="95.410156"/>
      </g>
     </g>
    </g>
    <g id="ytick_4">
     <g id="line2d_6">
      <g>
       <use xlink:href="#mb78a939d91" x="18" y="31.946571" style="stroke: #000000; stroke-width: 0.8"/>
      </g>
     </g>
     <g id="text_6">
      <!-- 0.8 -->
      <g transform="translate(-4.903125 35.74579) scale(0.1 -0.1)">
       <defs>
        <path id="DejaVuSans-38" d="M 2034 2216 
Q 1584 2216 1326 1975 
Q 1069 1734 1069 1313 
Q 1069 891 1326 650 
Q 1584 409 2034 409 
Q 2484 409 2743 651 
Q 3003 894 3003 1313 
Q 3003 1734 2745 1975 
Q 2488 2216 2034 2216 
z
M 1403 2484 
Q 997 2584 770 2862 
Q 544 3141 544 3541 
Q 544 4100 942 4425 
Q 1341 4750 2034 4750 
Q 2731 4750 3128 4425 
Q 3525 4100 3525 3541 
Q 3525 3141 3298 2862 
Q 3072 2584 2669 2484 
Q 3125 2378 3379 2068 
Q 3634 1759 3634 1313 
Q 3634 634 3220 271 
Q 2806 -91 2034 -91 
Q 1263 -91 848 271 
Q 434 634 434 1313 
Q 434 1759 690 2068 
Q 947 2378 1403 2484 
z
M 1172 3481 
Q 1172 3119 1398 2916 
Q 1625 2713 2034 2713 
Q 2441 2713 2670 2916 
Q 2900 3119 2900 3481 
Q 2900 3844 2670 4047 
Q 2441 4250 2034 4250 
Q 1625 4250 1398 4047 
Q 1172 3844 1172 3481 
z
" transform="scale(0.015625)"/>
       </defs>
       <use xlink:href="#DejaVuSans-30"/>
       <use xlink:href="#DejaVuSans-2e" x="63.623047"/>
       <use xlink:href="#DejaVuSans-38" x="95.410156"/>
      </g>
     </g>
    </g>
   </g>
   <g id="patch_3">
    <path d="M 18 128.16 
L 18 17.28 
" style="fill: none; stroke: #000000; stroke-width: 0.8; stroke-linejoin: miter; stroke-linecap: square"/>
   </g>
   <g id="patch_4">
    <path d="M 129.6 128.16 
L 129.6 17.28 
" style="fill: none; stroke: #000000; stroke-width: 0.8; stroke-linejoin: miter; stroke-linecap: square"/>
   </g>
   <g id="patch_5">
    <path d="M 18 128.16 
L 129.6 128.16 
" style="fill: none; stroke: #000000; stroke-width: 0.8; stroke-linejoin: miter; stroke-linecap: square"/>
   </g>
   <g id="patch_6">
    <path d="M 18 17.28 
L 129.6 17.28 
" style="fill: none; stroke: #000000; stroke-width: 0.8; stroke-linejoin: miter; stroke-linecap: square"/>
   </g>
   <g id="patch_7">
    <path d="M 37.53 113.183297 
L 54.27 113.183297 
L 54.27 105.94217 
L 50.085 105.055104 
L 54.27 104.168038 
L 54.27 93.271189 
L 37.53 93.271189 
L 37.53 104.168038 
L 41.715 105.055104 
L 37.53 105.94217 
L 37.53 113.183297 
z
" clip-path="url(#p3538967a08)" style="fill: #ffffff; stroke: #000000; stroke-linejoin: miter"/>
   </g>
   <g id="line2d_7">
    <path d="M 45.9 113.183297 
L 45.9 123.12 
" clip-path="url(#p3538967a08)" style="fill: none; stroke: #000000; stroke-linecap: square"/>
   </g>
   <g id="line2d_8">
    <path d="M 45.9 93.271189 
L 45.9 63.443804 
" clip-path="url(#p3538967a08)" style="fill: none; stroke: #000000; stroke-linecap: square"/>
   </g>
   <g id="line2d_9">
    <path d="M 41.715 123.12 
L 50.085 123.12 
" clip-path="url(#p3538967a08)" style="fill: none; stroke: #000000; stroke-linecap: square"/>
   </g>
   <g id="line2d_10">
    <path d="M 41.715 63.443804 
L 50.085 63.443804 
" clip-path="url(#p3538967a08)" style="fill: none; stroke: #000000; stroke-linecap: square"/>
   </g>
   <g id="patch_8">
    <path d="M 93.33 107.433978 
L 110.07 107.433978 
L 110.07 103.548174 
L 105.885 102.359855 
L 110.07 101.171535 
L 110.07 95.300087 
L 93.33 95.300087 
L 93.33 101.171535 
L 97.515 102.359855 
L 93.33 103.548174 
L 93.33 107.433978 
z
" clip-path="url(#p3538967a08)" style="fill: #ffffff; stroke: #000000; stroke-linejoin: miter"/>
   </g>
   <g id="line2d_11">
    <path d="M 101.7 107.433978 
L 101.7 116.389114 
" clip-path="url(#p3538967a08)" style="fill: none; stroke: #000000; stroke-linecap: square"/>
   </g>
   <g id="line2d_12">
    <path d="M 101.7 95.300087 
L 101.7 79.887445 
" clip-path="url(#p3538967a08)" style="fill: none; stroke: #000000; stroke-linecap: square"/>
   </g>
   <g id="line2d_13">
    <path d="M 97.515 116.389114 
L 105.885 116.389114 
" clip-path="url(#p3538967a08)" style="fill: none; stroke: #000000; stroke-linecap: square"/>
   </g>
   <g id="line2d_14">
    <path d="M 97.515 79.887445 
L 105.885 79.887445 
" clip-path="url(#p3538967a08)" style="fill: none; stroke: #000000; stroke-linecap: square"/>
   </g>
   <g id="line2d_15">
    <path d="M 41.715 105.055104 
L 50.085 105.055104 
" clip-path="url(#p3538967a08)" style="fill: none; stroke: #000000; stroke-linecap: square"/>
   </g>
   <g id="line2d_16">
    <path d="M 97.515 102.359855 
L 105.885 102.359855 
" clip-path="url(#p3538967a08)" style="fill: none; stroke: #000000; stroke-linecap: square"/>
   </g>
  </g>
 </g>
 <defs>
  <clipPath id="p3538967a08">
   <rect x="18" y="17.28" width="111.6" height="110.88"/>
  </clipPath>
 </defs>
</svg>
